<?xml version="1.0" encoding="UTF-8"?>
<svg version="1.1" xmlns="http://www.w3.org/2000/svg" width="500" height="500">
<path d="M0 0 C165 0 330 0 500 0 C500 165 500 330 500 500 C335 500 170 500 0 500 C0 335 0 170 0 0 Z " fill="#FDFDFD" transform="translate(0,0)"/>
<path d="M0 0 C2.06469018 0.12365452 4.12981563 0.24025377 6.1953125 0.34960938 C11.22225326 0.6310272 16.23366629 1.00759218 21.25 1.4375 C19.9748151 4.01919641 18.65243327 6.47374581 17.0859375 8.890625 C16.68632813 9.509375 16.28671875 10.128125 15.875 10.765625 C15.25625 11.71695312 15.25625 11.71695312 14.625 12.6875 C14.20476563 13.3371875 13.78453125 13.986875 13.3515625 14.65625 C12.31954327 16.25118881 11.28501972 17.84450669 10.25 19.4375 C11.9 19.7675 13.55 20.0975 15.25 20.4375 C15.58 19.1175 15.91 17.7975 16.25 16.4375 C16.745 17.4275 16.745 17.4275 17.25 18.4375 C19.17247559 18.47508423 19.17247559 18.47508423 21.13378906 18.51342773 C25.8899125 18.60761595 30.64589379 18.7078089 35.40185547 18.80981445 C37.46008987 18.85312009 39.51835918 18.89479829 41.57666016 18.93481445 C44.53558879 18.99262275 47.4943424 19.05628696 50.453125 19.12109375 C51.37305237 19.13780624 52.29297974 19.15451874 53.24078369 19.17173767 C54.1013739 19.19168289 54.96196411 19.21162811 55.84863281 19.23217773 C56.98114471 19.25549416 56.98114471 19.25549416 58.13653564 19.27928162 C60.27479671 19.43935633 62.18989084 19.85566368 64.25 20.4375 C64.25 19.7775 64.25 19.1175 64.25 18.4375 C64.91 18.4375 65.57 18.4375 66.25 18.4375 C66.311875 17.65375 66.37375 16.87 66.4375 16.0625 C67.25 12.4375 67.25 12.4375 72.25 2.4375 C86.11 2.4375 99.97 2.4375 114.25 2.4375 C113.50251405 6.92241571 112.64620905 10.57753823 111.1875 14.8125 C110.82527344 15.87210937 110.46304688 16.93171875 110.08984375 18.0234375 C109.81269531 18.82007813 109.53554687 19.61671875 109.25 20.4375 C110.9 20.4375 112.55 20.4375 114.25 20.4375 C114.35957031 19.8084375 114.46914062 19.179375 114.58203125 18.53125 C114.74058594 17.6753125 114.89914063 16.819375 115.0625 15.9375 C115.28873047 14.68453125 115.28873047 14.68453125 115.51953125 13.40625 C116.44224594 9.6561796 117.89398916 6.0535289 119.25 2.4375 C133.11 2.4375 146.97 2.4375 161.25 2.4375 C161.25 8.0475 161.25 13.6575 161.25 19.4375 C162.24 19.7675 163.23 20.0975 164.25 20.4375 C164.32347656 19.13425781 164.32347656 19.13425781 164.3984375 17.8046875 C164.47320312 16.65226562 164.54796875 15.49984375 164.625 14.3125 C164.69460937 13.17554688 164.76421875 12.03859375 164.8359375 10.8671875 C165.25 7.4375 165.25 7.4375 167.25 1.4375 C181.11 1.4375 194.97 1.4375 209.25 1.4375 C209.25 7.7075 209.25 13.9775 209.25 20.4375 C210.57 20.4375 211.89 20.4375 213.25 20.4375 C213.25 14.1675 213.25 7.8975 213.25 1.4375 C227.44 1.4375 241.63 1.4375 256.25 1.4375 C256.25 1.7675 256.25 2.0975 256.25 2.4375 C242.39 2.4375 228.53 2.4375 214.25 2.4375 C214.25 8.0475 214.25 13.6575 214.25 19.4375 C228.77 19.4375 243.29 19.4375 258.25 19.4375 C257.92 16.4675 257.59 13.4975 257.25 10.4375 C259.6794516 14.0816774 259.41179575 16.14991272 259.25 20.4375 C260.57 20.4375 261.89 20.4375 263.25 20.4375 C262.92 17.1375 262.59 13.8375 262.25 10.4375 C264.25 13.4375 264.25 13.4375 264.25 19.4375 C278.44 19.4375 292.63 19.4375 307.25 19.4375 C307.58 18.1175 307.91 16.7975 308.25 15.4375 C308.58 17.0875 308.91 18.7375 309.25 20.4375 C311.23 19.9425 311.23 19.9425 313.25 19.4375 C312.816875 18.09945313 312.816875 18.09945313 312.375 16.734375 C312.00375 15.56390625 311.6325 14.3934375 311.25 13.1875 C310.87875 12.02734375 310.5075 10.8671875 310.125 9.671875 C309.25 6.4375 309.25 6.4375 309.25 2.4375 C323.11 2.4375 336.97 2.4375 351.25 2.4375 C358.25 16.4375 358.25 16.4375 358.25 20.4375 C359.9 20.4375 361.55 20.4375 363.25 20.4375 C362.82847656 19.47328125 362.40695312 18.5090625 361.97265625 17.515625 C361.41910968 16.23965324 360.86573319 14.96360767 360.3125 13.6875 C360.03470703 13.05328125 359.75691406 12.4190625 359.47070312 11.765625 C358.13679296 8.67995328 357.00540084 5.70985881 356.25 2.4375 C362.04762766 2.06418822 367.83816806 1.79351955 373.64501953 1.61352539 C375.615009 1.53847664 377.58417325 1.43638055 379.55126953 1.3059082 C395.44099743 0.27907581 395.44099743 0.27907581 400.1661377 3.90985107 C404.24522025 8.38310056 408.25 14.25430475 408.25 20.4375 C409.9 20.4375 411.55 20.4375 413.25 20.4375 C412.62351562 19.40109375 411.99703125 18.3646875 411.3515625 17.296875 C410.52596316 15.92713065 409.70044668 14.55733636 408.875 13.1875 C408.4625 12.50558594 408.05 11.82367188 407.625 11.12109375 C407.22539062 10.45722656 406.82578125 9.79335938 406.4140625 9.109375 C406.04748535 8.5019043 405.6809082 7.89443359 405.30322266 7.26855469 C404.20522611 5.35965943 403.2162719 3.41587488 402.25 1.4375 C408.04788699 1.13883722 413.8412253 0.92223983 419.64501953 0.77832031 C421.6145633 0.71829489 423.58357942 0.63663595 425.55126953 0.53222656 C442.79950946 -0.3594716 442.79950946 -0.3594716 447.69238281 3.98632812 C450.31640597 6.86761955 452.27454911 10.08300079 454.25 13.4375 C455.36060791 14.80696777 455.36060791 14.80696777 456.49365234 16.20410156 C458.25 18.4375 458.25 18.4375 458.25 20.4375 C459.24 20.4375 460.23 20.4375 461.25 20.4375 C461.25 70.9275 461.25 121.4175 461.25 173.4375 C296.25 173.4375 131.25 173.4375 -38.75 173.4375 C-38.75 21.4375 -38.75 21.4375 -34.75 15.4375 C-34.00452418 14.15754053 -33.26488374 12.87414283 -32.53417969 11.58569336 C-24.07245676 -1.94781081 -14.87532051 -1.30320017 0 0 Z " fill="#FFFFFF" transform="translate(38.75,326.5625)"/>
<path d="M0 0 C1.42044365 0.06377838 1.42044365 0.06377838 2.86958313 0.12884521 C4.32815483 0.17062897 4.32815483 0.17062897 5.81619263 0.21325684 C8.92478174 0.30669661 12.03154199 0.4283654 15.13911438 0.55072021 C17.24517471 0.6189864 19.35129544 0.68541566 21.45747375 0.74993896 C26.62312986 0.91221822 31.78732184 1.09982169 36.95161438 1.30072021 C35.67642948 3.88241662 34.35404765 6.33696603 32.78755188 8.75384521 C32.3879425 9.37259521 31.98833313 9.99134521 31.57661438 10.62884521 C30.95786438 11.58017334 30.95786438 11.58017334 30.32661438 12.55072021 C29.90638 13.20040771 29.48614563 13.85009521 29.05317688 14.51947021 C28.02115765 16.11440903 26.9866341 17.70772691 25.95161438 19.30072021 C27.60161438 19.63072021 29.25161438 19.96072021 30.95161438 20.30072021 C31.28161438 18.98072021 31.61161438 17.66072021 31.95161438 16.30072021 C32.44661438 17.29072021 32.44661438 17.29072021 32.95161438 18.30072021 C34.87408997 18.33830444 34.87408997 18.33830444 36.83540344 18.37664795 C41.59152688 18.47083616 46.34750817 18.57102911 51.10346985 18.67303467 C53.16170425 18.71634031 55.21997356 18.7580185 57.27827454 18.79803467 C60.23720317 18.85584297 63.19595678 18.91950717 66.15473938 18.98431396 C67.07466675 19.00102646 67.99459412 19.01773895 68.94239807 19.03495789 C69.80298828 19.05490311 70.66357849 19.07484833 71.55024719 19.09539795 C72.68275909 19.11871437 72.68275909 19.11871437 73.83815002 19.14250183 C75.97641109 19.30257655 77.89150522 19.71888389 79.95161438 20.30072021 C79.95161438 19.64072021 79.95161438 18.98072021 79.95161438 18.30072021 C80.61161438 18.30072021 81.27161438 18.30072021 81.95161438 18.30072021 C82.01348938 17.51697021 82.07536438 16.73322021 82.13911438 15.92572021 C82.95161438 12.30072021 82.95161438 12.30072021 87.95161438 2.30072021 C101.81161438 2.30072021 115.67161438 2.30072021 129.95161438 2.30072021 C129.20412843 6.78563592 128.34782343 10.44075845 126.88911438 14.67572021 C126.52688782 15.73532959 126.16466125 16.79493896 125.79145813 17.88665771 C125.51430969 18.68329834 125.23716125 19.47993896 124.95161438 20.30072021 C126.60161438 20.30072021 128.25161438 20.30072021 129.95161438 20.30072021 C130.06118469 19.67165771 130.170755 19.04259521 130.28364563 18.39447021 C130.44220032 17.53853271 130.600755 16.68259521 130.76411438 15.80072021 C130.99034485 14.54775146 130.99034485 14.54775146 131.22114563 13.26947021 C132.14386032 9.51939981 133.59560354 5.91674912 134.95161438 2.30072021 C148.81161438 2.30072021 162.67161438 2.30072021 176.95161438 2.30072021 C176.95161438 7.91072021 176.95161438 13.52072021 176.95161438 19.30072021 C177.94161438 19.63072021 178.93161438 19.96072021 179.95161438 20.30072021 C180.02509094 18.99747803 180.02509094 18.99747803 180.10005188 17.66790771 C180.1748175 16.51548584 180.24958313 15.36306396 180.32661438 14.17572021 C180.39622375 13.03876709 180.46583313 11.90181396 180.53755188 10.73040771 C180.95161438 7.30072021 180.95161438 7.30072021 182.95161438 1.30072021 C196.81161438 1.30072021 210.67161438 1.30072021 224.95161438 1.30072021 C224.95161438 7.57072021 224.95161438 13.84072021 224.95161438 20.30072021 C226.27161438 20.30072021 227.59161438 20.30072021 228.95161438 20.30072021 C228.95161438 14.03072021 228.95161438 7.76072021 228.95161438 1.30072021 C243.14161438 1.30072021 257.33161438 1.30072021 271.95161438 1.30072021 C271.95161438 1.63072021 271.95161438 1.96072021 271.95161438 2.30072021 C258.09161438 2.30072021 244.23161438 2.30072021 229.95161438 2.30072021 C229.95161438 7.91072021 229.95161438 13.52072021 229.95161438 19.30072021 C244.47161438 19.30072021 258.99161438 19.30072021 273.95161438 19.30072021 C273.62161438 16.33072021 273.29161438 13.36072021 272.95161438 10.30072021 C275.38106598 13.94489761 275.11341013 16.01313293 274.95161438 20.30072021 C276.27161438 20.30072021 277.59161438 20.30072021 278.95161438 20.30072021 C278.62161438 17.00072021 278.29161438 13.70072021 277.95161438 10.30072021 C279.95161438 13.30072021 279.95161438 13.30072021 279.95161438 19.30072021 C294.14161438 19.30072021 308.33161438 19.30072021 322.95161438 19.30072021 C323.28161438 17.98072021 323.61161438 16.66072021 323.95161438 15.30072021 C324.28161438 16.95072021 324.61161438 18.60072021 324.95161438 20.30072021 C326.93161438 19.80572021 326.93161438 19.80572021 328.95161438 19.30072021 C328.51848938 17.96267334 328.51848938 17.96267334 328.07661438 16.59759521 C327.70536438 15.42712646 327.33411438 14.25665771 326.95161438 13.05072021 C326.58036438 11.89056396 326.20911438 10.73040771 325.82661438 9.53509521 C324.95161438 6.30072021 324.95161438 6.30072021 324.95161438 2.30072021 C338.81161438 2.30072021 352.67161438 2.30072021 366.95161438 2.30072021 C373.95161438 16.30072021 373.95161438 16.30072021 373.95161438 20.30072021 C375.60161438 20.30072021 377.25161438 20.30072021 378.95161438 20.30072021 C378.53009094 19.33650146 378.1085675 18.37228271 377.67427063 17.37884521 C377.12072406 16.10287345 376.56734757 14.82682789 376.01411438 13.55072021 C375.73632141 12.91650146 375.45852844 12.28228271 375.1723175 11.62884521 C373.83840734 8.5431735 372.70701522 5.57307902 371.95161438 2.30072021 C377.74924204 1.92740844 383.53978244 1.65673976 389.34663391 1.47674561 C391.31662338 1.40169685 393.28578763 1.29960076 395.25288391 1.16912842 C411.14261181 0.14229603 411.14261181 0.14229603 415.86775208 3.77307129 C419.94683463 8.24632078 423.95161438 14.11752496 423.95161438 20.30072021 C425.60161438 20.30072021 427.25161438 20.30072021 428.95161438 20.30072021 C428.32513 19.26431396 427.69864563 18.22790771 427.05317688 17.16009521 C426.22757754 15.79035086 425.40206106 14.42055657 424.57661438 13.05072021 C424.16411438 12.36880615 423.75161438 11.68689209 423.32661438 10.98431396 C422.927005 10.32044678 422.52739563 9.65657959 422.11567688 8.97259521 C421.74909973 8.36512451 421.38252258 7.75765381 421.00483704 7.1317749 C419.90684049 5.22287965 418.91788628 3.2790951 417.95161438 1.30072021 C423.74950137 1.00205743 429.54283968 0.78546004 435.34663391 0.64154053 C437.31617767 0.58151511 439.2851938 0.49985616 441.25288391 0.39544678 C458.50112384 -0.49625138 458.50112384 -0.49625138 463.39399719 3.84954834 C466.01802035 6.73083977 467.97616349 9.94622101 469.95161438 13.30072021 C471.06222229 14.67018799 471.06222229 14.67018799 472.19526672 16.06732178 C473.95161438 18.30072021 473.95161438 18.30072021 473.95161438 20.30072021 C474.94161438 20.63072021 475.93161438 20.96072021 476.95161438 21.30072021 C312.28161438 21.30072021 147.61161438 21.30072021 -22.04838562 21.30072021 C-20.22731573 16.74804549 -18.24840677 13.83754102 -15.11088562 10.23822021 C-11.68916698 6.44378977 -11.68916698 6.44378977 -9.0176239 2.13397217 C-6.15789621 -0.52827619 -3.79853258 -0.0876556 0 0 Z " fill="#BEBEBE" transform="translate(23.048385620117188,326.69927978515625)"/>
<path d="M0 0 C1.65 0 3.3 0 5 0 C5 0.99 5 1.98 5 3 C16.55 3 28.1 3 40 3 C45.683391 17.77681661 45.683391 17.77681661 47.3125 23.5625 C47.63863281 24.69816406 47.96476563 25.83382813 48.30078125 27.00390625 C49 30 49 30 49 34 C36.13 34 23.26 34 10 34 C11.1999099 35.42825986 11.1999099 35.42825986 14.69360352 35.11352539 C16.33871292 35.11336624 17.98382731 35.10766988 19.62890625 35.09765625 C20.49313705 35.0962413 21.35736786 35.09482635 22.24778748 35.09336853 C25.01939292 35.08775239 27.7909188 35.07519719 30.5625 35.0625 C32.4368478 35.05748708 34.31119685 35.05292381 36.18554688 35.04882812 C40.79039544 35.03777772 45.39518421 35.0205023 50 35 C51.98 42.425 51.98 42.425 54 50 C40.47 50 26.94 50 13 50 C12.505 48.02 12.505 48.02 12 46 C12 47.32 12 48.64 12 50 C25.86 50.33 39.72 50.66 54 51 C54 51.33 54 51.66 54 52 C40.47 52 26.94 52 13 52 C14.23233585 53.4612027 14.23233585 53.4612027 17.96899414 53.11352539 C19.74105607 53.1133662 21.5131226 53.10766785 23.28515625 53.09765625 C24.21597519 53.0962413 25.14679413 53.09482635 26.1058197 53.09336853 C29.09141191 53.08775172 32.07693029 53.0751964 35.0625 53.0625 C37.08137913 53.05748716 39.10025943 53.05292388 41.11914062 53.04882812 C46.07945572 53.03777683 51.03971532 53.02050095 56 53 C56.51265801 54.51661327 57.00944323 56.03859447 57.5 57.5625 C57.91765625 58.83287109 57.91765625 58.83287109 58.34375 60.12890625 C59 63 59 63 59 70 C44.81 70 30.62 70 16 70 C15.67 68.35 15.34 66.7 15 65 C15 66.98 15 68.96 15 71 C13.68 71 12.36 71 11 71 C10.67 69.02 10.34 67.04 10 65 C10 66.65 10 68.3 10 70 C-4.52 70 -19.04 70 -34 70 C-34 64.39 -34 58.78 -34 53 C-34.33 52.67 -34.66 52.34 -35 52 C-35 58.27 -35 64.54 -35 71 C-36.32 71 -37.64 71 -39 71 C-39 64.4 -39 57.8 -39 51 C-52.86 51 -66.72 51 -81 51 C-80.34 45.39 -79.68 39.78 -79 34 C-65.47 34 -51.94 34 -38 34 C-37.505 36.475 -37.505 36.475 -37 39 C-36.34 39 -35.68 39 -35 39 C-34.47067683 20.94040677 -34.47067683 20.94040677 -36 3 C-36.66 2.34 -37.32 1.68 -38 1 C-36.68 1 -35.36 1 -34 1 C-34 1.66 -34 2.32 -34 3 C-22.78 3 -11.56 3 0 3 C0 2.01 0 1.02 0 0 Z " fill="#818181" transform="translate(287,276)"/>
<path d="M0 0 C0.66 0 1.32 0 2 0 C2 0.99 2 1.98 2 3 C0.33784732 4.33895632 -1.32963607 5.67130142 -3 7 C-4.98 9.97 -4.98 9.97 -7 13 C5.21 13 17.42 13 30 13 C27.76388889 19.70833333 27.76388889 19.70833333 25.4375 22.6875 C23.706381 24.92203045 22.9194553 26.24163409 22 29 C39.325 29.495 39.325 29.495 57 30 C56.34 31.98 55.68 33.96 55 36 C56.32 35.34 57.64 34.68 59 34 C59.33 34.33 59.66 34.66 60 35 C60.99 32.525 60.99 32.525 62 30 C74.21 30 86.42 30 99 30 C97 40 97 40 95 44 C82.13 44.33 69.26 44.66 56 45 C74.81 45.495 74.81 45.495 94 46 C92 56 92 56 90 61 C76.47 61 62.94 61 49 61 C49.33 59.02 49.66 57.04 50 55 C48.04105639 55.11306697 48.04105639 55.11306697 46 56 C44.84668432 58.50804892 44.84668432 58.50804892 44 61 C42.73293213 60.99476318 41.46586426 60.98952637 40.16040039 60.98413086 C35.4771393 60.96608486 30.79388129 60.95456947 26.1105957 60.94506836 C24.08031702 60.94002722 22.05004198 60.93319443 20.01977539 60.92456055 C17.10822653 60.91248533 14.1967255 60.90676966 11.28515625 60.90234375 C10.3716188 60.89718246 9.45808136 60.89202118 8.51686096 60.88670349 C6.34424573 60.88650832 4.17172704 60.93788195 2 61 C1.67 61.33 1.34 61.66 1 62 C14.53 62 28.06 62 42 62 C37.5 73.25 37.5 73.25 35.75 77.125 C35.41484375 77.87007813 35.0796875 78.61515625 34.734375 79.3828125 C34.49203125 79.91648437 34.2496875 80.45015625 34 81 C33.45098526 80.99777939 32.90197052 80.99555878 32.33631897 80.99327087 C26.64292041 80.97121642 20.9495339 80.95609274 15.25610352 80.94506836 C13.12881986 80.94002702 11.00153969 80.93319409 8.87426758 80.92456055 C5.82372174 80.91248621 2.77322155 80.90676986 -0.27734375 80.90234375 C-1.23462875 80.89718246 -2.19191376 80.89202118 -3.1782074 80.88670349 C-4.05904495 80.88662796 -4.93988251 80.88655243 -5.84741211 80.88647461 C-6.62684677 80.884254 -7.40628143 80.88203339 -8.20933533 80.87974548 C-10.02366535 80.80428614 -10.02366535 80.80428614 -11 82 C-12.99958364 82.04080783 -15.00045254 82.04254356 -17 82 C-15.94204201 80.14323799 -14.87838153 78.28972484 -13.8125 76.4375 C-13.22082031 75.40496094 -12.62914062 74.37242187 -12.01953125 73.30859375 C-9.85362279 69.76019053 -7.41632433 66.38285406 -5 63 C-19.19 63 -33.38 63 -48 63 C-46.19243702 58.48109254 -44.18615986 55.3834367 -41.1875 51.6875 C-40.70466553 51.08212402 -40.22183105 50.47674805 -39.72436523 49.85302734 C-37.10672317 46.58045232 -34.45814294 43.33340567 -31.8046875 40.08984375 C-30.72386185 38.76830807 -29.64313345 37.44669285 -28.5625 36.125 C-28.01899902 35.46105225 -27.47549805 34.79710449 -26.91552734 34.11303711 C-23.09041653 29.41343736 -19.42045418 24.61773588 -15.8125 19.75 C-12.09932302 14.74892756 -8.33200374 9.81141456 -4.375 5 C-3.57835937 4.030625 -2.78171875 3.06125 -1.9609375 2.0625 C-1.31382813 1.381875 -0.66671875 0.70125 0 0 Z " fill="#7A7A7A" transform="translate(65,265)"/>
<path d="M0 0 C3.80257473 1.51589128 5.73055864 3.7602045 8.25 6.9375 C8.95640625 7.81277344 9.6628125 8.68804687 10.390625 9.58984375 C12 12 12 12 12 15 C0.45 15 -11.1 15 -23 15 C-22.01 16.65 -21.02 18.3 -20 20 C-19.3125 23.3125 -19.3125 23.3125 -19 26 C-20.485 25.505 -20.485 25.505 -22 25 C-22.55438956 23.6787197 -23.07465263 22.34296802 -23.57421875 21 C-24.79176085 18.68812946 -24.79176085 18.68812946 -27 17 C-32.9232527 15.79351331 -38.7889871 15.9253357 -44.8125 16 C-46.47593304 15.99190544 -48.13935276 15.98022573 -49.80273438 15.96484375 C-53.86950678 15.9350405 -57.93340259 15.95437553 -62 16 C-61.71125 16.60328125 -61.4225 17.2065625 -61.125 17.828125 C-60.568125 19.02695312 -60.568125 19.02695312 -60 20.25 C-59.62875 21.03890625 -59.2575 21.8278125 -58.875 22.640625 C-58 25 -58 25 -58 29 C-57.34 29 -56.68 29 -56 29 C-55.5875 29.8971875 -55.175 30.794375 -54.75 31.71875 C-54.16679472 32.97922592 -53.58345367 34.23963903 -53 35.5 C-52.73316406 36.08136719 -52.46632813 36.66273438 -52.19140625 37.26171875 C-48.63232088 44.93352498 -44.78775345 52.4244931 -41 60 C-21.2 60.495 -21.2 60.495 -1 61 C-0.67 60.34 -0.34 59.68 0 59 C0.99 61.475 0.99 61.475 2 64 C-11.53 64 -25.06 64 -39 64 C-37.35 67.3 -35.7 70.6 -34 74 C-33.24958465 76.64432077 -32.54866024 79.30657699 -32 82 C-33.65 82 -35.3 82 -37 82 C-38.17112946 79.37690901 -39.33705964 76.75171858 -40.5 74.125 C-40.83386719 73.37863281 -41.16773438 72.63226563 -41.51171875 71.86328125 C-41.82753906 71.14785156 -42.14335937 70.43242187 -42.46875 69.6953125 C-42.76201172 69.03547363 -43.05527344 68.37563477 -43.35742188 67.69580078 C-44 66 -44 66 -44 64 C-57.86 64 -71.72 64 -86 64 C-83.525 72.91 -83.525 72.91 -81 82 C-82.65 82 -84.3 82 -86 82 C-86.84124316 79.75267898 -87.67314832 77.50261215 -88.5 75.25 C-88.73847656 74.61578125 -88.97695313 73.9815625 -89.22265625 73.328125 C-90.44801758 69.96713393 -91 67.63128413 -91 64 C-104.86 64 -118.72 64 -133 64 C-133.33 65.32 -133.66 66.64 -134 68 C-133.95875 67.21625 -133.9175 66.4325 -133.875 65.625 C-133.71271266 62.83883881 -133.71271266 62.83883881 -136 61 C-136.1953125 58.8359375 -136.1953125 58.8359375 -136.125 56.375 C-136.09792969 55.14910156 -136.09792969 55.14910156 -136.0703125 53.8984375 C-136.03550781 52.95871094 -136.03550781 52.95871094 -136 52 C-135.67 52 -135.34 52 -135 52 C-134.67 54.97 -134.34 57.94 -134 61 C-120.8 60.67 -107.6 60.34 -94 60 C-94.99 57.03 -95.98 54.06 -97 51 C-97 49.35 -97 47.7 -97 46 C-109.87 46 -122.74 46 -136 46 C-136.33 47.32 -136.66 48.64 -137 50 C-137 48.35 -137 46.7 -137 45 C-124.13 45 -111.26 45 -98 45 C-99.11375 41.143125 -100.2275 37.28625 -101.375 33.3125 C-101.72224121 32.10505127 -102.06948242 30.89760254 -102.42724609 29.65356445 C-102.84611084 28.21049927 -102.84611084 28.21049927 -103.2734375 26.73828125 C-103.55622559 25.75899658 -103.83901367 24.77971191 -104.13037109 23.77075195 C-104.95889571 20.98722444 -104.95889571 20.98722444 -106.10791016 18.32885742 C-107 16 -107 16 -107 13 C-94.46 13.33 -81.92 13.66 -69 14 C-69 13.34 -69 12.68 -69 12 C-68.32491898 12.16265854 -67.64983795 12.32531708 -66.95429993 12.49290466 C-63.49672873 13.08638477 -60.24053148 13.11958641 -56.73120117 13.11352539 C-55.66209 13.11374443 -55.66209 13.11374443 -54.57138062 13.1139679 C-52.2285451 13.11327432 -49.88579028 13.105508 -47.54296875 13.09765625 C-45.91343733 13.0957901 -44.28390535 13.09436713 -42.65437317 13.09336853 C-38.37511636 13.08955888 -34.09589374 13.07974188 -29.81665039 13.06866455 C-25.44613101 13.05841702 -21.07560607 13.05386376 -16.70507812 13.04882812 C-8.1367031 13.03811818 0.43164419 13.02106045 9 13 C7.87970983 11.51726301 6.75361382 10.03891114 5.625 8.5625 C4.99851562 7.73878906 4.37203125 6.91507812 3.7265625 6.06640625 C2.16246096 3.91471908 2.16246096 3.91471908 0 3 C0 2.01 0 1.02 0 0 Z " fill="#959595" transform="translate(434,265)"/>
<path d="M0 0 C29 0 29 0 37 3 C40.73206799 6.92345609 42.11525087 9.48120413 42.19287109 14.81347656 C42.20893402 15.8150177 42.22499695 16.81655884 42.24154663 17.84844971 C42.28598472 22.43590656 42.3270693 27.02321805 42.35009766 31.61083984 C42.36665088 34.02988306 42.3939322 36.4488775 42.43212891 38.86767578 C42.48691967 42.35475045 42.50877697 45.84067771 42.5234375 49.328125 C42.54610687 50.40644592 42.56877625 51.48476685 42.59213257 52.59576416 C42.56856036 60.9836389 42.56856036 60.9836389 39.71728516 64.60449219 C28.18749195 74.76894241 18.80781649 69 0 69 C0 46.23 0 23.46 0 0 Z " fill="#040404" transform="translate(264,201)"/>
<path d="M0 0 C0 3.01490557 -0.51952735 4.86864114 -1.5 7.6875 C-1.7784375 8.49574219 -2.056875 9.30398438 -2.34375 10.13671875 C-2.5603125 10.75160156 -2.776875 11.36648438 -3 12 C-3.495 10.02 -3.495 10.02 -4 8 C-15.55 7.67 -27.1 7.34 -39 7 C-39.33 8.65 -39.66 10.3 -40 12 C-40.66 13.98 -41.32 15.96 -42 18 C-24.675 18.495 -24.675 18.495 -7 19 C-7 21.31 -7 23.62 -7 26 C-4.83656989 23.96731398 -4.83656989 23.96731398 -3 21 C-3.56194018 26.50701374 -4.71140192 29.65993781 -7 35 C5.87 34.67 18.74 34.34 32 34 C32.33 31.36 32.66 28.72 33 26 C34.09392815 23.39917483 35.45788043 21.38779804 37 19 C37.66 19 38.32 19 39 19 C38.34 24.28 37.68 29.56 37 35 C50.2 35 63.4 35 77 35 C76.67 29.72 76.34 24.44 76 19 C76.07090494 16.16380226 76.19289732 13.32651989 76.4375 10.5 C76.53933594 9.2521875 76.64117187 8.004375 76.74609375 6.71875 C76.82988281 5.8215625 76.91367188 4.924375 77 4 C77.99 4.33 78.98 4.66 80 5 C82.0220662 32.47843531 82.0220662 32.47843531 80 41 C79.34 41 78.68 41 78 41 C77.67 41.66 77.34 42.32 77 43 C77 40.69 77 38.38 77 36 C63.47 36 49.94 36 36 36 C35.67 40.29 35.34 44.58 35 49 C34.67 50.32 34.34 51.64 34 53 C47.86 53 61.72 53 76 53 C76 53.33 76 53.66 76 54 C62.14 54.33 48.28 54.66 34 55 C33.01 60.94 32.02 66.88 31 73 C29.68 72.67 28.36 72.34 27 72 C27.33 66.39 27.66 60.78 28 55 C14.14 55 0.28 55 -14 55 C-14.99 58.63 -15.98 62.26 -17 66 C-17.66206314 68.33464372 -18.32649361 70.66863173 -19 73 C-20.65 73 -22.3 73 -24 73 C-23.73598005 71.68611248 -23.46324636 70.37397661 -23.1875 69.0625 C-22.96126953 67.96615234 -22.96126953 67.96615234 -22.73046875 66.84765625 C-21.70170789 62.8371393 -20.30929733 58.927892 -19 55 C-32.86 55 -46.72 55 -61 55 C-61.66 57.31 -62.32 59.62 -63 62 C-63.97691857 63.68029994 -64.97388051 65.34928604 -66 67 C-66.69579454 69.19130534 -66.69579454 69.19130534 -67 71 C-67.66 71 -68.32 71 -69 71 C-69 71.66 -69 72.32 -69 73 C-70.32 73 -71.64 73 -73 73 C-72 67 -72 67 -66 55 C-79.86 55 -93.72 55 -108 55 C-105 51 -105 51 -103.04475403 50.5569458 C-102.30529037 50.58359314 -101.56582672 50.61024048 -100.80395508 50.63769531 C-99.96331009 50.65801819 -99.1226651 50.67834106 -98.25654602 50.69927979 C-97.35333115 50.74179871 -96.45011627 50.78431763 -95.51953125 50.828125 C-94.59154221 50.85598083 -93.66355316 50.88383667 -92.70744324 50.91253662 C-89.74146657 51.00595911 -86.7774099 51.12763178 -83.8125 51.25 C-81.80279676 51.31826811 -79.79303014 51.38469729 -77.78320312 51.44921875 C-72.85447961 51.61147741 -67.92729278 51.79907942 -63 52 C-62.87625 51.21625 -62.7525 50.4325 -62.625 49.625 C-62 47 -62 47 -60 45 C-58.68 45 -57.36 45 -56 45 C-56.66 47.31 -57.32 49.62 -58 52 C-44.47 52 -30.94 52 -17 52 C-16.67 50.35 -16.34 48.7 -16 47 C-15.01 43.7 -14.02 40.4 -13 37 C-25.87 37 -38.74 37 -52 37 C-51.505 36.01 -51.505 36.01 -51 35 C-38.13 34.67 -25.26 34.34 -12 34 C-10.68 29.71 -9.36 25.42 -8 21 C-20.21 21.33 -32.42 21.66 -45 22 C-45.66 23.65 -46.32 25.3 -47 27 C-48.66666667 27 -50.33333333 27 -52 27 C-51.34 25.02 -50.68 23.04 -50 21 C-61.88 21 -73.76 21 -86 21 C-83 14 -83 14 -77 4 C-65.12 4.33 -53.24 4.66 -41 5 C-40.67 4.01 -40.34 3.02 -40 2 C-38.68 2 -37.36 2 -36 2 C-36 2.66 -36 3.32 -36 4 C-24.78 4.33 -13.56 4.66 -2 5 C-1.67 3.68 -1.34 2.36 -1 1 C-0.67 0.67 -0.34 0.34 0 0 Z " fill="#888888" transform="translate(172,274)"/>
<path d="M0 0 C4.75239056 2.38471211 7.73217063 5.58934127 10.125 10.375 C10.4094187 15.26052124 10.43884582 20.14702066 10.47509766 25.04003906 C10.49159195 26.66941679 10.5187954 28.29872413 10.55712891 29.92773438 C10.93873401 46.24052314 10.93873401 46.24052314 6.53515625 52.00927734 C1.43380763 56.94988402 -3.42361386 57.65343598 -10.4375 57.875 C-17.45971696 57.6518511 -21.22355948 57.07974142 -26.22973633 52.00048828 C-31.20397178 45.52070626 -30.59580756 37.92576057 -30.47192383 30.14746094 C-30.43747362 27.74816274 -30.45132936 25.35252852 -30.47070312 22.953125 C-30.46380677 21.41404697 -30.45413628 19.87497834 -30.44140625 18.3359375 C-30.44636612 17.62641937 -30.45132599 16.91690125 -30.45643616 16.18588257 C-30.33788698 11.137007 -29.00708369 8.28549913 -25.875 4.375 C-18.50392145 -2.42907251 -9.31000716 -3.73645772 0 0 Z " fill="#030303" transform="translate(338.875,213.625)"/>
<path d="M0 0 C5.63618354 3.15626278 8.61505101 5.7265651 11.125 11.75 C11.51318359 15.25756836 11.51318359 15.25756836 11.5234375 19.08984375 C11.52630768 19.77502579 11.52917786 20.46020782 11.53213501 21.16615295 C11.53416564 22.60744051 11.52870612 24.04875626 11.51611328 25.48999023 C11.50006813 27.67820856 11.51598126 29.86457338 11.53515625 32.05273438 C11.53317316 33.46094152 11.52932811 34.86914753 11.5234375 36.27734375 C11.52005371 37.54312256 11.51666992 38.80890137 11.51318359 40.11303711 C10.80063139 46.78906869 8.29172554 51.33938064 3.125 55.75 C-2.56762715 59.48415451 -11.75620344 58.56014346 -18.23828125 57.28515625 C-22.74796508 55.59527473 -25.178469 52.55686729 -27.875 48.75 C-29.08073315 45.13280056 -29.07521033 41.7805845 -29.11328125 38.01171875 C-29.121353 37.25333206 -29.12942474 36.49494537 -29.13774109 35.71357727 C-29.15156182 34.1089607 -29.16229296 32.50431498 -29.17016602 30.8996582 C-29.18168481 29.26350252 -29.20213529 27.62738438 -29.23168945 25.99145508 C-29.27447503 23.62295081 -29.29054944 21.25556205 -29.30078125 18.88671875 C-29.31828934 18.16151535 -29.33579742 17.43631195 -29.35383606 16.68913269 C-29.33207695 11.55282122 -28.07848161 8.7165482 -24.875 4.75 C-18.00843932 -1.58836371 -8.8512412 -3.55214285 0 0 Z " fill="#040404" transform="translate(166.875,213.25)"/>
<path d="M0 0 C3.07991342 2.2743976 4.80569118 4.6770652 5.77734375 8.3125 C6.07457554 12.05056754 5.96313378 15.5502518 5.77734375 19.3125 C0.49734375 19.3125 -4.78265625 19.3125 -10.22265625 19.3125 C-10.55265625 16.3425 -10.88265625 13.3725 -11.22265625 10.3125 C-12.54265625 9.9825 -13.86265625 9.6525 -15.22265625 9.3125 C-16.58487932 10.46266254 -16.58487932 10.46266254 -16.53515625 13.5625 C-16.16498777 18.0045218 -15.21682177 19.11131798 -12.22265625 22.3125 C-9.64785574 24.12886367 -9.64785574 24.12886367 -6.84765625 25.6875 C-0.89231218 29.33703662 4.22306789 33.63472948 6.77734375 40.3125 C8.28904261 56.55447379 8.28904261 56.55447379 4.19628906 62.68066406 C1.22110582 66.10222717 -3.03880463 67.94043639 -7.46386719 68.69433594 C-9.77196131 68.84648518 -12.03537514 68.85929152 -14.34765625 68.8125 C-15.50587891 68.83570313 -15.50587891 68.83570313 -16.6875 68.859375 C-21.99011592 68.82324133 -25.00133809 67.76689166 -29.22265625 64.3125 C-34.85812398 58.09405285 -33.29592932 50.22599126 -33.22265625 42.3125 C-27.94265625 42.3125 -22.66265625 42.3125 -17.22265625 42.3125 C-16.89265625 47.2625 -16.56265625 52.2125 -16.22265625 57.3125 C-14.57265625 57.3125 -12.92265625 57.3125 -11.22265625 57.3125 C-11.16841987 55.39614783 -11.12975662 53.47935075 -11.09765625 51.5625 C-11.07445313 50.49515625 -11.05125 49.4278125 -11.02734375 48.328125 C-11.22248382 45.31516233 -11.4777224 43.74882274 -13.22265625 41.3125 C-15.08173103 40.1744381 -15.08173103 40.1744381 -17.22265625 39.3125 C-23.71041229 35.50241782 -29.77746142 31.20288966 -33.22265625 24.3125 C-33.40060261 21.54703858 -33.50027347 18.82986725 -33.53515625 16.0625 C-33.56416016 15.31097656 -33.59316406 14.55945313 -33.62304688 13.78515625 C-33.68322878 8.47989004 -32.75336559 5.50403729 -29.22265625 1.3125 C-21.74315649 -5.31625097 -8.34923103 -4.47779988 0 0 Z " fill="#050505" transform="translate(104.22265625,202.6875)"/>
<path d="M0 0 C3.81490608 2.41939372 6.5558937 4.66768111 8 9 C8.08722452 10.61095858 8.11767272 12.22531016 8.11352539 13.83862305 C8.11344986 14.8194133 8.11337433 15.80020355 8.11329651 16.81071472 C8.10813522 17.86704605 8.10297394 18.92337738 8.09765625 20.01171875 C8.0962413 21.09508011 8.09482635 22.17844147 8.09336853 23.29463196 C8.08776559 26.75894925 8.07521258 30.2232022 8.0625 33.6875 C8.05748538 36.03450428 8.05292241 38.38150956 8.04882812 40.72851562 C8.0377952 46.48570192 8.02052858 52.24284005 8 58 C2.39 58 -3.22 58 -9 58 C-9.33 43.15 -9.66 28.3 -10 13 C-10.99 13 -11.98 13 -13 13 C-13.33 27.85 -13.66 42.7 -14 58 C-19.61 58 -25.22 58 -31 58 C-31 39.52 -31 21.04 -31 2 C-25.39 2 -19.78 2 -14 2 C-13.67 2.66 -13.34 3.32 -13 4 C-12.154375 3.34 -11.30875 2.68 -10.4375 2 C-6.39316109 -0.35306991 -4.59845024 -0.80674566 0 0 Z " fill="#010101" transform="translate(212,212)"/>
<path d="M0 0 C4.65429542 2.93717672 7.38507139 7.03534153 9.01171875 12.26953125 C9.14974199 15.08796588 9.20148188 17.77285902 9.13671875 20.58203125 C9.09546875 23.11890625 9.05421875 25.65578125 9.01171875 28.26953125 C1.75171875 28.26953125 -5.50828125 28.26953125 -12.98828125 28.26953125 C-12.98828125 34.20953125 -12.98828125 40.14953125 -12.98828125 46.26953125 C-11.00828125 45.77453125 -11.00828125 45.77453125 -8.98828125 45.26953125 C-8.65828125 40.97953125 -8.32828125 36.68953125 -7.98828125 32.26953125 C-2.37828125 32.26953125 3.23171875 32.26953125 9.01171875 32.26953125 C9.17882672 37.78409422 9.23310128 42.12527697 7.01171875 47.26953125 C6.64046875 48.13578125 6.26921875 49.00203125 5.88671875 49.89453125 C3.11602292 53.4040793 0.24774528 55.10118765 -3.98828125 56.26953125 C-12.1523956 57.13489241 -18.34384208 57.53859088 -24.98828125 52.26953125 C-31.43165529 45.11022677 -31.36094675 39.00961077 -31.35888672 29.73535156 C-31.36324023 27.54021454 -31.39952293 25.34712272 -31.4375 23.15234375 C-31.49908957 15.68488761 -31.43431793 9.58430489 -26.98828125 3.26953125 C-24.953125 1.4296875 -24.953125 1.4296875 -22.92578125 0.33203125 C-22.25417969 -0.04824219 -21.58257812 -0.42851562 -20.890625 -0.8203125 C-13.80544321 -4.2101428 -6.90520389 -3.41042356 0 0 Z " fill="#070707" transform="translate(253.98828125,214.73046875)"/>
<path d="M0 0 C3.28363504 2.12309875 5.15735756 4.77174636 6.87890625 8.21484375 C7.01449943 11.21958872 6.92189641 14.20553222 6.87890625 17.21484375 C1.59890625 17.21484375 -3.68109375 17.21484375 -9.12109375 17.21484375 C-9.45109375 14.57484375 -9.78109375 11.93484375 -10.12109375 9.21484375 C-11.44109375 9.54484375 -12.76109375 9.87484375 -14.12109375 10.21484375 C-14.53979928 12.54556254 -14.53979928 12.54556254 -14.12109375 15.21484375 C-11.12641692 18.41605002 -7.39681169 20.14087125 -3.55859375 22.15234375 C1.33892664 24.75600533 4.3684049 27.19384105 6.87890625 32.21484375 C7.85910083 45.86216828 7.85910083 45.86216828 3.87890625 51.21484375 C-1.15832823 55.87428565 -5.21989788 56.41629488 -11.87109375 56.46484375 C-12.56203125 56.48546875 -13.25296875 56.50609375 -13.96484375 56.52734375 C-19.07690927 56.56578033 -22.57339425 55.57460722 -27.12109375 53.21484375 C-32.11246429 47.89071517 -31.20215837 42.10533637 -31.12109375 35.21484375 C-25.84109375 35.21484375 -20.56109375 35.21484375 -15.12109375 35.21484375 C-14.79109375 38.18484375 -14.46109375 41.15484375 -14.12109375 44.21484375 C-12.80109375 44.21484375 -11.48109375 44.21484375 -10.12109375 44.21484375 C-9.45185613 40.92740828 -9.45185613 40.92740828 -10.12109375 37.21484375 C-11.88780813 35.60455721 -13.71698921 34.60073394 -15.8203125 33.46875 C-18.19401026 32.17510487 -20.27762262 30.71782195 -22.43359375 29.08984375 C-23.06910156 28.61289063 -23.70460938 28.1359375 -24.359375 27.64453125 C-27.29594229 25.261419 -28.90208995 23.87185514 -30.12109375 20.21484375 C-30.59338142 14.41577055 -30.90125465 9.06772589 -28.62109375 3.65234375 C-20.47739531 -4.28776223 -10.07755152 -5.06581749 0 0 Z " fill="#040404" transform="translate(423.12109375,214.78515625)"/>
<path d="M0 0 C4.44460371 2.70162186 7.8480979 6.2586958 10.1875 10.9375 C10.3252685 14.60765275 10.23021961 18.26361348 10.1875 21.9375 C4.9075 21.9375 -0.3725 21.9375 -5.8125 21.9375 C-6.1425 18.3075 -6.4725 14.6775 -6.8125 10.9375 C-8.1325 10.9375 -9.4525 10.9375 -10.8125 10.9375 C-10.8125 22.8175 -10.8125 34.6975 -10.8125 46.9375 C-9.4925 46.9375 -8.1725 46.9375 -6.8125 46.9375 C-6.4825 42.6475 -6.1525 38.3575 -5.8125 33.9375 C-0.5325 33.9375 4.7475 33.9375 10.1875 33.9375 C10.67601775 45.90618476 10.67601775 45.90618476 8.5 50.5 C3.77189358 55.48367974 0.59986001 58.04679941 -6.32299805 58.23046875 C-18.85640942 58.34291384 -18.85640942 58.34291384 -23.8125 53.9375 C-29.63744018 48.00078508 -29.48669859 40.91708852 -29.44726562 33.0859375 C-29.43477783 32.30186523 -29.42229004 31.51779297 -29.40942383 30.70996094 C-29.37497362 28.31066274 -29.38882936 25.91502852 -29.40820312 23.515625 C-29.40130677 21.97654697 -29.39163628 20.43747834 -29.37890625 18.8984375 C-29.38386612 18.18891937 -29.38882599 17.47940125 -29.39393616 16.74838257 C-29.27538698 11.699507 -27.94458369 8.84799913 -24.8125 4.9375 C-17.53492361 -1.78026282 -9.36032034 -2.60861387 0 0 Z " fill="#030303" transform="translate(380.8125,213.0625)"/>
<path d="M0 0 C5.61 0 11.22 0 17 0 C17 2.97 17 5.94 17 9 C18.65 9 20.3 9 22 9 C22 11.97 22 14.94 22 18 C20.35 18 18.7 18 17 18 C17.495 36.315 17.495 36.315 18 55 C19.32 55.33 20.64 55.66 22 56 C22 58.97 22 61.94 22 65 C19.41638482 65.05407567 16.83390745 65.093707 14.25 65.125 C13.52039063 65.14175781 12.79078125 65.15851563 12.0390625 65.17578125 C4.90298655 65.24065467 4.90298655 65.24065467 2 63 C0.29919809 60.16005878 -0.24737886 58.07537581 -0.22705078 54.78222656 C-0.22689972 53.96167786 -0.22674866 53.14112915 -0.22659302 52.29571533 C-0.21627045 51.41953552 -0.20594788 50.54335571 -0.1953125 49.640625 C-0.1924826 48.73624695 -0.18965271 47.8318689 -0.18673706 46.90008545 C-0.17555782 44.01658805 -0.15045733 41.13340325 -0.125 38.25 C-0.11496728 36.29297324 -0.10584194 34.33594161 -0.09765625 32.37890625 C-0.07562585 27.58581738 -0.04111144 22.79296166 0 18 C-1.32 18 -2.64 18 -4 18 C-4 15.03 -4 12.06 -4 9 C-2.68 9 -1.36 9 0 9 C0 6.03 0 3.06 0 0 Z " fill="#020202" transform="translate(115,205)"/>
<path d="M0 0 C0.99 0.33 1.98 0.66 3 1 C5.0220662 28.47843531 5.0220662 28.47843531 3 37 C2.34 37 1.68 37 1 37 C0.67 37.66 0.34 38.32 0 39 C0 36.69 0 34.38 0 32 C-13.53 32 -27.06 32 -41 32 C-41.33 36.29 -41.66 40.58 -42 45 C-42.33 46.32 -42.66 47.64 -43 49 C-29.14 49 -15.28 49 -1 49 C-1 49.33 -1 49.66 -1 50 C-14.86 50.33 -28.72 50.66 -43 51 C-43.99 56.94 -44.98 62.88 -46 69 C-47.32 68.67 -48.64 68.34 -50 68 C-49.67 62.39 -49.34 56.78 -49 51 C-62.86 51 -76.72 51 -91 51 C-91.99 54.63 -92.98 58.26 -94 62 C-94.66206314 64.33464372 -95.32649361 66.66863173 -96 69 C-97.65 69 -99.3 69 -101 69 C-100.73598005 67.68611248 -100.46324636 66.37397661 -100.1875 65.0625 C-99.96126953 63.96615234 -99.96126953 63.96615234 -99.73046875 62.84765625 C-98.70170789 58.8371393 -97.30929733 54.927892 -96 51 C-109.86 51 -123.72 51 -138 51 C-138.66 53.31 -139.32 55.62 -140 58 C-140.97691857 59.68029994 -141.97388051 61.34928604 -143 63 C-143.69579454 65.19130534 -143.69579454 65.19130534 -144 67 C-144.66 67 -145.32 67 -146 67 C-146 67.66 -146 68.32 -146 69 C-147.32 69 -148.64 69 -150 69 C-149 63 -149 63 -143 51 C-156.86 51 -170.72 51 -185 51 C-182 47 -182 47 -180.04475403 46.5569458 C-179.30529037 46.58359314 -178.56582672 46.61024048 -177.80395508 46.63769531 C-176.96331009 46.65801819 -176.1226651 46.67834106 -175.25654602 46.69927979 C-174.35333115 46.74179871 -173.45011627 46.78431763 -172.51953125 46.828125 C-171.59154221 46.85598083 -170.66355316 46.88383667 -169.70744324 46.91253662 C-166.74146657 47.00595911 -163.7774099 47.12763178 -160.8125 47.25 C-158.80279676 47.31826811 -156.79303014 47.38469729 -154.78320312 47.44921875 C-149.85447961 47.61147741 -144.92729278 47.79907942 -140 48 C-139.87625 47.21625 -139.7525 46.4325 -139.625 45.625 C-139 43 -139 43 -137 41 C-135.68 41 -134.36 41 -133 41 C-133.66 43.31 -134.32 45.62 -135 48 C-121.47 48 -107.94 48 -94 48 C-93.67 46.35 -93.34 44.7 -93 43 C-92.01 39.7 -91.02 36.4 -90 33 C-102.87 33 -115.74 33 -129 33 C-129 32.67 -129 32.34 -129 32 C-115.8 32 -102.6 32 -89 32 C-88.67 32.99 -88.34 33.98 -88 35 C-87.01 34.67 -86.02 34.34 -85 34 C-85.5648582 38.70715168 -86.47524303 42.42572908 -88 47 C-67.705 47.495 -67.705 47.495 -47 48 C-46.67 44.37 -46.34 40.74 -46 37 C-45.67 36.34 -45.34 35.68 -45 35 C-44.87028351 32.93894916 -44.77060812 30.87595584 -44.6875 28.8125 C-44.30491186 23.06092498 -43.35118404 19.64841657 -40 15 C-39.34 15 -38.68 15 -38 15 C-38.66 20.28 -39.32 25.56 -40 31 C-26.8 31 -13.6 31 0 31 C-0.33 25.72 -0.66 20.44 -1 15 C-0.92909506 12.16380226 -0.80710268 9.32651989 -0.5625 6.5 C-0.46066406 5.2521875 -0.35882813 4.004375 -0.25390625 2.71875 C-0.17011719 1.8215625 -0.08632812 0.924375 0 0 Z " fill="#989898" transform="translate(249,278)"/>
<path d="M0 0 C5.79788699 -0.29866278 11.5912253 -0.51526017 17.39501953 -0.65917969 C19.3645633 -0.71920511 21.33357942 -0.80086405 23.30126953 -0.90527344 C40.55225854 -1.79711372 40.55225854 -1.79711372 45.47753906 2.58398438 C48.09447431 5.45503715 50.06375443 8.63534051 52 12 C52.57411621 12.74668945 53.14823242 13.49337891 53.73974609 14.26269531 C55 16 55 16 55 18 C48.91750795 18.3731238 42.84175938 18.64391575 36.75048828 18.82397461 C34.68355277 18.89905077 32.61740477 19.00116541 30.55322266 19.1315918 C13.85031586 20.15989726 13.85031586 20.15989726 9.05700684 16.52764893 C4.69045426 11.74055313 2.03769321 6.11307963 0 0 Z " fill="#F9F9F9" transform="translate(441,328)"/>
<path d="M0 0 C13.86 0 27.72 0 42 0 C42 8 42 8 40 17 C25.48 17 10.96 17 -4 17 C-3 8 -3 8 0 0 Z " fill="#FCFCFC" transform="translate(158,329)"/>
<path d="M0 0 C1.97770222 0.06027406 3.95558132 0.11501276 5.93359375 0.1640625 C10.75180474 0.29551465 15.56143586 0.502042 20.375 0.75 C19.71741337 2.42027005 19.04825017 4.08598184 18.375 5.75 C17.99408203 6.76868164 17.61316406 7.78736328 17.22070312 8.83691406 C15.43402889 12.46714168 13.78233422 15.50498072 10.375 17.75 C3.15629532 19.79432579 -4.72538578 18.87091383 -12.125 18.5 C-14.20818014 18.43975878 -16.29152695 18.38501428 -18.375 18.3359375 C-23.46246589 18.20415661 -28.54189948 17.99743001 -33.625 17.75 C-27.13312158 -0.16177702 -17.26446039 -0.91608517 0 0 Z " fill="#FDFDFD" transform="translate(38.625,328.25)"/>
<path d="M0 0 C5.83450859 -0.29799088 11.66454599 -0.5149501 17.50488281 -0.65917969 C19.48808962 -0.71931605 21.47076886 -0.8010593 23.45214844 -0.90527344 C39.42427121 -1.72394506 39.42427121 -1.72394506 43.69726562 1.13598633 C48.17458788 5.66575274 49.78202144 10.91010719 51 17 C36.48 17 21.96 17 7 17 C5.68 14.03 4.36 11.06 3 8 C2.4225 7.05125 1.845 6.1025 1.25 5.125 C0 3 0 3 0 0 Z " fill="#FDFDFD" transform="translate(395,329)"/>
<path d="M0 0 C13.86 0 27.72 0 42 0 C46 8 46 8 48 17 C33.48 17 18.96 17 4 17 C0 4 0 4 0 0 Z " fill="#FDFDFD" transform="translate(348,329)"/>
<path d="M0 0 C14.19 0 28.38 0 43 0 C43.495 8.415 43.495 8.415 44 17 C29.48 17 14.96 17 0 17 C0 11.39 0 5.78 0 0 Z " fill="#FDFDFD" transform="translate(253,329)"/>
<path d="M0 0 C13.86 0 27.72 0 42 0 C41 6 41 6 37 17 C22.48 17 7.96 17 -7 17 C-4 8 -4 8 0 0 Z " fill="#FDFDFD" transform="translate(111,329)"/>
<path d="M0 0 C1.99140202 0.05521328 3.98295025 0.10539709 5.97460938 0.15039062 C10.84086014 0.27126541 15.70007587 0.46081726 20.5625 0.6875 C18.7669052 6.72722797 16.24490868 11.78620091 13.5625 17.6875 C-0.9575 17.6875 -15.4775 17.6875 -30.4375 17.6875 C-29.7775 15.7075 -29.1175 13.7275 -28.4375 11.6875 C-28.11644287 10.7080542 -27.79538574 9.7286084 -27.46459961 8.71948242 C-22.08742272 -3.01626867 -11.09749121 -0.53271613 0 0 Z " fill="#FDFDFD" transform="translate(85.4375,328.3125)"/>
<path d="M0 0 C13.86 0 27.72 0 42 0 C45 10 45 10 45 17 C30.81 17 16.62 17 2 17 C0 8 0 8 0 0 Z " fill="#FDFDFD" transform="translate(301,329)"/>
<path d="M0 0 C13.53 0 27.06 0 41 0 C41 5.61 41 11.22 41 17 C26.81 17 12.62 17 -2 17 C-1.34 11.39 -0.68 5.78 0 0 Z " fill="#FEFEFE" transform="translate(206,329)"/>
<path d="M0 0 C12.87 0 25.74 0 39 0 C39 5.28 39 10.56 39 16 C25.14 16 11.28 16 -3 16 C-2 4 -2 4 0 0 Z " fill="#F8F8F8" transform="translate(209,311)"/>
<path d="M0 0 C1.65 0.33 3.3 0.66 5 1 C5 4.63 5 8.26 5 12 C10.28 12 15.56 12 21 12 C21.33 9.03 21.66 6.06 22 3 C22.33 3 22.66 3 23 3 C23.07734375 4.17755859 23.07734375 4.17755859 23.15625 5.37890625 C23.75788714 10.95088661 24.25715813 15.0858025 28.5625 18.9375 C32.19290759 21.65864646 36.07944685 23.89595457 40.1171875 25.95703125 C42 27 42 27 44 29 C44.125 32.625 44.125 32.625 44 36 C42.34385343 36.38218767 40.67542976 36.71395102 39 37 C38 36 38 36 37.90234375 33.93359375 C37.93489583 31.62239583 37.96744792 29.31119792 38 27 C32.72 27 27.44 27 22 27 C22 28.98 22 30.96 22 33 C21.67 33 21.34 33 21 33 C21 30.03 21 27.06 21 24 C15.72 24 10.44 24 5 24 C5 28.29 5 32.58 5 37 C2.525 37.495 2.525 37.495 0 38 C-1.78830448 36.21169552 -1.12848711 33.80418848 -1.13894653 31.42358398 C-1.1369223 30.64442627 -1.13489807 29.86526855 -1.1328125 29.0625 C-1.13376923 28.267229 -1.13472595 27.47195801 -1.13571167 26.65258789 C-1.13639343 24.9679354 -1.13453943 23.28328029 -1.13037109 21.59863281 C-1.12502275 19.01100803 -1.13031619 16.42355684 -1.13671875 13.8359375 C-1.13605797 12.20312461 -1.1347768 10.57031184 -1.1328125 8.9375 C-1.13483673 8.15834229 -1.13686096 7.37918457 -1.13894653 6.57641602 C-1.11495105 1.11495105 -1.11495105 1.11495105 0 0 Z " fill="#F7F7F7" transform="translate(370,223)"/>
<path d="M0 0 C1.89964539 0.04516798 3.79939319 0.08622855 5.69921875 0.12304688 C10.34367827 0.22200002 14.98321827 0.37714558 19.625 0.5625 C17.645 5.5125 15.665 10.4625 13.625 15.5625 C-0.235 15.5625 -14.095 15.5625 -28.375 15.5625 C-27.715 13.5825 -27.055 11.6025 -26.375 9.5625 C-25.98320557 8.30771851 -25.98320557 8.30771851 -25.58349609 7.02758789 C-20.94539588 -3.05723572 -9.38741365 -0.38595038 0 0 Z " fill="#FCFCFC" transform="translate(95.375,310.4375)"/>
<path d="M0 0 C5.56804212 -0.27296195 11.13215984 -0.47195459 16.70532227 -0.60424805 C18.59826496 -0.65940429 20.49074229 -0.73435819 22.38208008 -0.82983398 C38.07050139 -1.60166634 38.07050139 -1.60166634 42.83935547 2.35693359 C45.72110471 6.72275829 47 9.74028825 47 15 C41.41357741 15.24786175 35.83037158 15.42893257 30.23974609 15.54931641 C28.34009045 15.59950332 26.44081922 15.66767504 24.54248047 15.75439453 C8.79100575 16.45574359 8.79100575 16.45574359 4.42285156 12.90527344 C1.86321248 8.78200545 0.84823577 4.74265158 0 0 Z " fill="#FCFCFC" transform="translate(386,311)"/>
<path d="M0 0 C13.2 0 26.4 0 40 0 C45 11 45 11 45 15 C31.47 15 17.94 15 4 15 C0 3 0 3 0 0 Z " fill="#FCFCFC" transform="translate(342,311)"/>
<path d="M0 0 C5.51294898 -0.32372772 11.02027684 -0.55823979 16.54052734 -0.71411133 C18.41325271 -0.77911635 20.28532754 -0.86756722 22.15576172 -0.98071289 C37.27318238 -1.87163288 37.27318238 -1.87163288 41.87316895 1.28570557 C45.40796262 4.70957037 47.85918985 8.59293323 50 13 C50 13.66 50 14.32 50 15 C44.32639919 15.34812061 38.65908478 15.60092847 32.97729492 15.76904297 C31.0491102 15.83913529 29.12166167 15.93445848 27.19604492 16.05615234 C11.57877598 17.01783669 11.57877598 17.01783669 7.20672607 13.59680176 C4.30078815 10.29442585 0 4.58183909 0 0 Z " fill="#FDFDFD" transform="translate(430,311)"/>
<path d="M0 0 C1.84690801 0.04518083 3.69392177 0.08623914 5.54101562 0.12304688 C10.05079929 0.22187028 14.55548574 0.37694132 19.0625 0.5625 C18.76939941 1.27873535 18.47629883 1.9949707 18.17431641 2.73291016 C17.03318678 5.50326329 17.03318678 5.50326329 16.30615234 8.21630859 C14.97816667 11.5849342 13.908788 13.27330324 11.0625 15.5625 C4.18076856 17.32625496 -3.28901879 16.49266847 -10.3125 16.1875 C-12.30848317 16.13731713 -14.30458654 16.09169359 -16.30078125 16.05078125 C-21.18265768 15.94079061 -26.05876541 15.76839388 -30.9375 15.5625 C-30.0249646 14.22723267 -30.0249646 14.22723267 -29.09399414 12.86499023 C-26.96636963 9.7621121 -26.96636963 9.7621121 -25.71655273 7.02758789 C-20.28580205 -2.72916134 -9.71167115 -0.41173826 0 0 Z " fill="#FDFDFD" transform="translate(50.9375,310.4375)"/>
<path d="M0 0 C13.2 0 26.4 0 40 0 C38 10 38 10 36 15 C22.47 15 8.94 15 -5 15 C-4 10 -4 10 0 0 Z " fill="#FCFCFC" transform="translate(119,311)"/>
<path d="M0 0 C12.87 0 25.74 0 39 0 C39 12 39 12 38 15 C24.14 15 10.28 15 -4 15 C-2.68 10.05 -1.36 5.1 0 0 Z " fill="#FCFCFC" transform="translate(164,311)"/>
<path d="M0 0 C12.87 0 25.74 0 39 0 C41 11 41 11 41 15 C27.47 15 13.94 15 0 15 C0 10.05 0 5.1 0 0 Z " fill="#FDFDFD" transform="translate(253,311)"/>
<path d="M0 0 C12.87 0 25.74 0 39 0 C40.32 4.95 41.64 9.9 43 15 C29.47 15 15.94 15 2 15 C0 6 0 6 0 0 Z " fill="#FEFEFE" transform="translate(298,311)"/>
<path d="M0 0 C12.87 0 25.74 0 39 0 C40 5 40 5 40 14 C26.8 14 13.6 14 0 14 C0 9.38 0 4.76 0 0 Z " fill="#F6F6F6" transform="translate(252,295)"/>
<path d="M0 0 C12.87 0 25.74 0 39 0 C39 4.62 39 9.24 39 14 C25.8 14 12.6 14 -1 14 C-0.67 9.38 -0.34 4.76 0 0 Z " fill="#F6F6F6" transform="translate(210,295)"/>
<path d="M0 0 C12.21 0 24.42 0 37 0 C41 11 41 11 41 14 C27.8 14 14.6 14 1 14 C0.67 9.38 0.34 4.76 0 0 Z " fill="#F8F8F8" transform="translate(295,295)"/>
<path d="M0 0 C12.21 0 24.42 0 37 0 C43 12 43 12 43 14 C29.8 14 16.6 14 3 14 C0 3 0 3 0 0 Z " fill="#F8F8F8" transform="translate(337,295)"/>
<path d="M0 0 C5.28318986 -0.27307748 10.56223709 -0.47199715 15.85083008 -0.60424805 C17.64680537 -0.65938693 19.4422907 -0.73432899 21.23657227 -0.82983398 C36.13930453 -1.60287447 36.13930453 -1.60287447 40.77685547 2.39208984 C43.3058345 6.25915301 45 9.33301888 45 14 C32.13 14 19.26 14 6 14 C4.02 9.38 2.04 4.76 0 0 Z " fill="#F9F9F9" transform="translate(378,295)"/>
<path d="M0 0 C12.21 0 24.42 0 37 0 C35 10 35 10 33 14 C20.13 14 7.26 14 -6 14 C-4 8 -4 8 0 0 Z " fill="#F9F9F9" transform="translate(127,295)"/>
<path d="M0 0 C1.75510626 0.04517294 3.51032352 0.08623267 5.265625 0.12304688 C9.55483126 0.22195456 13.83869825 0.37706245 18.125 0.5625 C17.66863464 1.958978 17.20980512 3.3546508 16.75 4.75 C16.36714844 5.91595703 16.36714844 5.91595703 15.9765625 7.10546875 C15.10508898 9.61994968 14.1133515 12.09162126 13.125 14.5625 C0.255 14.5625 -12.615 14.5625 -25.875 14.5625 C-22.68119376 -1.40653119 -14.17849728 -0.63159724 0 0 Z " fill="#F9F9F9" transform="translate(103.875,294.4375)"/>
<path d="M0 0 C1.79872828 0.04518278 3.5975652 0.08624076 5.39648438 0.12304688 C9.78785139 0.22185205 14.17397897 0.37690867 18.5625 0.5625 C17.7927804 1.9589478 17.02166631 3.35462699 16.25 4.75 C15.82074219 5.52730469 15.39148438 6.30460937 14.94921875 7.10546875 C14.49160156 7.91628906 14.03398438 8.72710937 13.5625 9.5625 C13.19406982 10.47668701 12.82563965 11.39087402 12.44604492 12.33276367 C10.5625 14.5625 10.5625 14.5625 6.6418457 15.13012695 C5.00711044 15.12933605 3.37224136 15.10112389 1.73828125 15.05078125 C0.87688034 15.04370651 0.01547943 15.03663177 -0.87202454 15.02934265 C-3.62389913 15.00134839 -6.37374033 14.93860323 -9.125 14.875 C-10.99020499 14.84992352 -12.85544187 14.82710921 -14.72070312 14.80664062 C-19.29375248 14.75150551 -23.8652815 14.66520033 -28.4375 14.5625 C-22.51649423 -0.78378026 -15.11783436 -0.65837734 0 0 Z " fill="#F9F9F9" transform="translate(62.4375,294.4375)"/>
<path d="M0 0 C5.12259602 -0.22376932 10.24230654 -0.38636568 15.36865234 -0.49438477 C17.10906558 -0.53943721 18.84914208 -0.60070419 20.58837891 -0.67895508 C34.96545868 -1.30923966 34.96545868 -1.30923966 39.90234375 1.86767578 C43.30466561 5.57685261 45.25694151 9.29989281 47 14 C41.59285939 14.32303689 36.19138962 14.5579136 30.77685547 14.71411133 C28.93894633 14.77923155 27.10170441 14.86777109 25.26611328 14.98071289 C10.37321344 15.87364042 10.37321344 15.87364042 6.35107422 12.69818115 C3.53632586 9.41955453 0 4.42303992 0 0 Z " fill="#F9F9F9" transform="translate(420,295)"/>
<path d="M0 0 C3.80257473 1.51589128 5.73055864 3.7602045 8.25 6.9375 C8.95640625 7.81277344 9.6628125 8.68804687 10.390625 9.58984375 C12 12 12 12 12 15 C0.45 15 -11.1 15 -23 15 C-22.01 16.65 -21.02 18.3 -20 20 C-19.3125 23.3125 -19.3125 23.3125 -19 26 C-20.485 25.505 -20.485 25.505 -22 25 C-22.55438956 23.6787197 -23.07465263 22.34296802 -23.57421875 21 C-24.79176085 18.68812946 -24.79176085 18.68812946 -27 17 C-32.9232527 15.79351331 -38.7889871 15.9253357 -44.8125 16 C-46.47593304 15.99190544 -48.13935276 15.98022573 -49.80273438 15.96484375 C-53.86950678 15.9350405 -57.93340259 15.95437553 -62 16 C-61.71125 16.60328125 -61.4225 17.2065625 -61.125 17.828125 C-60.75375 18.62734375 -60.3825 19.4265625 -60 20.25 C-59.62875 21.03890625 -59.2575 21.8278125 -58.875 22.640625 C-58 25 -58 25 -58 29 C-57.34 29 -56.68 29 -56 29 C-55.51789063 30.03640625 -55.03578125 31.0728125 -54.5390625 32.140625 C-53.90107098 33.51043032 -53.26304852 34.88022123 -52.625 36.25 C-52.30789063 36.93191406 -51.99078125 37.61382812 -51.6640625 38.31640625 C-51.3546875 38.98027344 -51.0453125 39.64414062 -50.7265625 40.328125 C-50.42766113 40.97104492 -50.12875977 41.61396484 -49.82080078 42.27636719 C-49.17670048 43.62893951 -48.48717966 44.95989448 -47.78125 46.28125 C-46.6166563 48.84335614 -46.87415026 51.23130568 -47 54 C-50 53 -50 53 -51.70166016 50.02832031 C-52.32515529 48.71677438 -52.93685017 47.39957846 -53.5390625 46.078125 C-54.02854874 45.03262482 -54.02854874 45.03262482 -54.52792358 43.96600342 C-55.21690714 42.48874045 -55.9008292 41.00910794 -56.58007812 39.52734375 C-57.61690269 37.26764759 -58.67027445 35.01627797 -59.7265625 32.765625 C-60.39422866 31.32858895 -61.06092696 29.89110275 -61.7265625 28.453125 C-62.04009674 27.78210754 -62.35363098 27.11109009 -62.67666626 26.41973877 C-64.30216212 22.85571614 -65.22027856 19.89860718 -66 16 C-77.88 16 -89.76 16 -102 16 C-100.68 19.96 -99.36 23.92 -98 28 C-96.66368719 33.21161996 -95.72318794 37.60216479 -96 43 C-99.34430404 40.77046397 -99.50718654 40.27413548 -100.53515625 36.60546875 C-100.91317383 35.29545898 -100.91317383 35.29545898 -101.29882812 33.95898438 C-101.55083984 33.04439453 -101.80285156 32.12980469 -102.0625 31.1875 C-102.57220937 29.38875231 -103.08387107 27.59055649 -103.59765625 25.79296875 C-103.83629395 24.95169434 -104.07493164 24.11041992 -104.32080078 23.24365234 C-105.00794007 20.85566549 -105.00794007 20.85566549 -106.18359375 18.05078125 C-107 16 -107 16 -107 13 C-88.19 13.495 -88.19 13.495 -69 14 C-69 13.34 -69 12.68 -69 12 C-68.32491898 12.16265854 -67.64983795 12.32531708 -66.95429993 12.49290466 C-63.49672873 13.08638477 -60.24053148 13.11958641 -56.73120117 13.11352539 C-56.01846039 13.11367142 -55.3057196 13.11381744 -54.57138062 13.1139679 C-52.2285451 13.11327432 -49.88579028 13.105508 -47.54296875 13.09765625 C-45.91343733 13.0957901 -44.28390535 13.09436713 -42.65437317 13.09336853 C-38.37511636 13.08955888 -34.09589374 13.07974188 -29.81665039 13.06866455 C-25.44613101 13.05841702 -21.07560607 13.05386376 -16.70507812 13.04882812 C-8.1367031 13.03811818 0.43164419 13.02106045 9 13 C7.87970983 11.51726301 6.75361382 10.03891114 5.625 8.5625 C4.99851562 7.73878906 4.37203125 6.91507812 3.7265625 6.06640625 C2.16246096 3.91471908 2.16246096 3.91471908 0 3 C0 2.01 0 1.02 0 0 Z " fill="#7D7D7D" transform="translate(434,265)"/>
<path d="M0 0 C12.21 0 24.42 0 37 0 C36 13 36 13 35 14 C32.1156618 14.08865208 29.25537842 14.11521296 26.37109375 14.09765625 C25.07474754 14.09553383 25.07474754 14.09553383 23.75221252 14.09336853 C20.98060708 14.08775239 18.2090812 14.07519719 15.4375 14.0625 C13.5631522 14.05748708 11.68880315 14.05292381 9.81445312 14.04882812 C5.20960456 14.03777772 0.60481579 14.0205023 -4 14 C-2.822876 9.29150399 -1.39461612 4.64872041 0 0 Z " fill="#F9F9F9" transform="translate(169,295)"/>
<path d="M0 0 C0.99 0.33 1.98 0.66 3 1 C5.0220662 28.47843531 5.0220662 28.47843531 3 37 C2.34 37 1.68 37 1 37 C0.505 37.99 0.505 37.99 0 39 C0 36.69 0 34.38 0 32 C-13.53 32 -27.06 32 -41 32 C-41.33 36.29 -41.66 40.58 -42 45 C-42.33 46.32 -42.66 47.64 -43 49 C-29.14 49 -15.28 49 -1 49 C-1 49.33 -1 49.66 -1 50 C-14.86 50.33 -28.72 50.66 -43 51 C-43.99 56.94 -44.98 62.88 -46 69 C-47.32 68.67 -48.64 68.34 -50 68 C-49.34 62.06 -48.68 56.12 -48 50 C-61.86 50 -75.72 50 -90 50 C-90 49.67 -90 49.34 -90 49 C-76.14 48.67 -62.28 48.34 -48 48 C-45.49334793 37.89581684 -45.49334793 37.89581684 -44.5625 28.125 C-44.25648053 22.63660733 -43.20251015 19.4421915 -40 15 C-39.34 15 -38.68 15 -38 15 C-38.66 20.28 -39.32 25.56 -40 31 C-26.8 31 -13.6 31 0 31 C-0.33 25.72 -0.66 20.44 -1 15 C-0.92909506 12.16380226 -0.80710268 9.32651989 -0.5625 6.5 C-0.46066406 5.2521875 -0.35882813 4.004375 -0.25390625 2.71875 C-0.12822266 1.37296875 -0.12822266 1.37296875 0 0 Z " fill="#6C6C6C" transform="translate(249,278)"/>
<path d="M0 0 C11.88 0 23.76 0 36 0 C40 9 40 9 40 12 C27.79 12 15.58 12 3 12 C0 3 0 3 0 0 Z " fill="#FBFBFB" transform="translate(332,281)"/>
<path d="M0 0 C11.55 0 23.1 0 35 0 C35 8 35 8 34 12 C21.79 12 9.58 12 -3 12 C-2 5 -2 5 0 0 Z " fill="#FBFBFB" transform="translate(173,281)"/>
<path d="M0 0 C4.85590664 -0.27327613 9.70729404 -0.47206867 14.5690918 -0.60424805 C16.21962443 -0.65935738 17.8696249 -0.73427938 19.51831055 -0.82983398 C24.86159835 -1.13161436 29.76626136 -1.22581934 35 0 C38.50578489 3.21741095 40.38373906 6.54991531 42 11 C42 11.33 42 11.66 42 12 C29.79 12 17.58 12 5 12 C0 2 0 2 0 0 Z " fill="#FCFCFC" transform="translate(372,281)"/>
<path d="M0 0 C4.83774845 -0.22389896 9.67243417 -0.38641764 14.51416016 -0.49438477 C16.15759851 -0.53941711 17.80068082 -0.60066957 19.44287109 -0.67895508 C33.05483175 -1.31120462 33.05483175 -1.31120462 37.875 1.93798828 C40.77544702 5.13301196 42.63483176 7.90449528 44 12 C38.85923718 12.27314003 33.7227354 12.4720199 28.57641602 12.60424805 C26.82892283 12.65937758 25.08193291 12.73431329 23.33618164 12.82983398 C8.79010415 13.60545887 8.79010415 13.60545887 4.25439453 9.53759766 C0 2.91214727 0 2.91214727 0 0 Z " fill="#FCFCFC" transform="translate(411,281)"/>
<path d="M0 0 C11.55 0 23.1 0 35 0 C38 8 38 8 38 12 C25.79 12 13.58 12 1 12 C0.67 8.04 0.34 4.08 0 0 Z " fill="#FCFCFC" transform="translate(293,281)"/>
<path d="M0 0 C1.15468025 0.01061211 1.15468025 0.01061211 2.33268738 0.0214386 C4.77879178 0.049312 7.22256259 0.11202988 9.66796875 0.17578125 C11.33134702 0.20087357 12.99476137 0.22368512 14.65820312 0.24414062 C18.72485032 0.29911454 22.78976464 0.38533198 26.85546875 0.48828125 C25.26368923 5.267661 23.45356833 8.91769693 19.85546875 12.48828125 C13.8833209 14.54508782 7.11116686 13.60795502 0.91796875 13.23828125 C-0.8324999 13.17803753 -2.583167 13.12329333 -4.33398438 13.07421875 C-8.60908843 12.94243777 -12.87462683 12.73577515 -17.14453125 12.48828125 C-12.89084601 4.45354246 -9.76271873 -0.34056382 0 0 Z " fill="#FCFCFC" transform="translate(63.14453125,280.51171875)"/>
<path d="M0 0 C11.88 0 23.76 0 36 0 C35.01 3.96 34.02 7.92 33 12 C20.79 12 8.58 12 -4 12 C-2 5 -2 5 0 0 Z " fill="#FCFCFC" transform="translate(133,281)"/>
<path d="M0 0 C1.46030557 0.00094484 2.92083711 0.03456099 4.37988281 0.09521484 C5.15108459 0.10370453 5.92228638 0.11219421 6.71685791 0.12094116 C9.17367878 0.15445939 11.6271841 0.2297233 14.08300781 0.30615234 C15.75092906 0.33625455 17.41890191 0.36362993 19.08691406 0.38818359 C23.17021762 0.45424389 27.2510512 0.55774435 31.33300781 0.68115234 C29.99032127 5.01906273 28.40088103 8.54540591 26.33300781 12.68115234 C14.45300781 12.68115234 2.57300781 12.68115234 -9.66699219 12.68115234 C-5.7990007 1.07717789 -5.7990007 1.07717789 0 0 Z " fill="#FCFCFC" transform="translate(97.6669921875,280.31884765625)"/>
<path d="M0 0 C11.55 0 23.1 0 35 0 C35.495 5.94 35.495 5.94 36 12 C24.12 12 12.24 12 0 12 C0 8.04 0 4.08 0 0 Z " fill="#FDFDFD" transform="translate(253,281)"/>
<path d="M0 0 C11.55 0 23.1 0 35 0 C35 3.96 35 7.92 35 12 C23.12 12 11.24 12 -1 12 C-0.67 8.04 -0.34 4.08 0 0 Z " fill="#FDFDFD" transform="translate(213,281)"/>
<path d="M0 0 C0.66 0 1.32 0 2 0 C2 0.99 2 1.98 2 3 C0.33784732 4.33895632 -1.32963607 5.67130142 -3 7 C-4.98 9.97 -4.98 9.97 -7 13 C9.335 13.495 9.335 13.495 26 14 C25.67 14.99 25.34 15.98 25 17 C23.97640381 16.95810547 22.95280762 16.91621094 21.89819336 16.87304688 C18.07634116 16.72752061 14.25472969 16.63615382 10.4309082 16.56054688 C8.78074889 16.52047642 7.13087078 16.46599952 5.48168945 16.39648438 C-3.99898501 15.70113092 -3.99898501 15.70113092 -12.64794922 18.74609375 C-14.94153365 21.33919815 -16.46172638 23.92345276 -18 27 C-6.45 27.33 5.1 27.66 17 28 C16.67 28.66 16.34 29.32 16 30 C3.46 30 -9.08 30 -22 30 C-22.66 31.32 -23.32 32.64 -24 34 C-27.465 38.95 -27.465 38.95 -31 44 C-18.13 44 -5.26 44 8 44 C7.67 44.99 7.34 45.98 7 47 C5.21553467 46.89788208 5.21553467 46.89788208 3.39501953 46.79370117 C-1.05792924 46.55675992 -5.51033622 46.40861547 -9.96777344 46.28588867 C-11.88897618 46.2208698 -13.80954433 46.13240922 -15.72851562 46.01928711 C-18.50549339 45.85979852 -21.27393694 45.78756293 -24.0546875 45.73046875 C-24.8998996 45.66337204 -25.74511169 45.59627533 -26.61593628 45.52714539 C-29.55722225 45.40367548 -29.55722225 45.40367548 -34 47 C-38.95 53.435 -38.95 53.435 -44 60 C-24.2 60.495 -24.2 60.495 -4 61 C-4 61.33 -4 61.66 -4 62 C-17.86 62 -31.72 62 -46 62 C-46.495 60.515 -46.495 60.515 -47 59 C-46.09472656 57.4128418 -46.09472656 57.4128418 -44.640625 55.69921875 C-44.10767822 55.05936035 -43.57473145 54.41950195 -43.02563477 53.76025391 C-42.43967529 53.07624512 -41.85371582 52.39223633 -41.25 51.6875 C-40.03418511 50.23127901 -38.81935656 48.77423401 -37.60546875 47.31640625 C-36.99364746 46.58695801 -36.38182617 45.85750977 -35.75146484 45.10595703 C-33.29812936 42.15607246 -30.92267 39.14960627 -28.5625 36.125 C-28.12663574 35.5686084 -27.69077148 35.0122168 -27.24169922 34.43896484 C-24.65842182 31.13702433 -22.08796366 27.82521405 -19.51953125 24.51171875 C-8.79620281 10.67869708 -8.79620281 10.67869708 -3.75 4.375 C-3.06421875 3.51648438 -2.3784375 2.65796875 -1.671875 1.7734375 C-1.12015625 1.18820312 -0.5684375 0.60296875 0 0 Z " fill="#838383" transform="translate(65,265)"/>
<path d="M0 0 C0.53923096 0.61963623 1.07846191 1.23927246 1.6340332 1.87768555 C2.10156006 2.4581665 2.56908691 3.03864746 3.05078125 3.63671875 C3.58010254 4.2910791 4.10942383 4.94543945 4.65478516 5.61962891 C5.20183105 6.30202637 5.74887695 6.98442383 6.3125 7.6875 C6.88790527 8.40083496 7.46331055 9.11416992 8.05615234 9.84912109 C9.70692839 11.89716009 11.35385179 13.94824087 13 16 C13.73863281 16.91652344 14.47726562 17.83304687 15.23828125 18.77734375 C16.47800276 20.31993718 17.71255149 21.86670479 18.94140625 23.41796875 C20.5996234 25.49781986 22.27684599 27.55774847 23.96484375 29.61328125 C24.99765671 30.88780948 26.03020986 32.16254829 27.0625 33.4375 C27.56475098 34.04158691 28.06700195 34.64567383 28.58447266 35.26806641 C29.8027601 36.78460501 30.91177678 38.38758447 32 40 C31.67 40.99 31.34 41.98 31 43 C17.14 43 3.28 43 -11 43 C-11 42.67 -11 42.34 -11 42 C2.2 42 15.4 42 29 42 C27.68 40.02 26.36 38.04 25 36 C24.54881805 35.23820435 24.09763611 34.47640869 23.63278198 33.69152832 C21.02904024 29.58333051 21.02904024 29.58333051 16.88775635 27.30834961 C14.36858963 27.07447454 11.97232809 27.09824377 9.4453125 27.21875 C8.54376434 27.23006958 7.64221619 27.24138916 6.71334839 27.25305176 C3.84835564 27.29765469 0.98846556 27.397974 -1.875 27.5 C-3.82284411 27.54014838 -5.77076709 27.57664679 -7.71875 27.609375 C-12.4811172 27.69733606 -17.23969525 27.83526165 -22 28 C-22 27.01 -22 26.02 -22 25 C-9.46 25 3.08 25 16 25 C11.3251134 18.22219258 11.3251134 18.22219258 6 12 C3.20783209 11.75430728 0.50759395 11.62636862 -2.2890625 11.5859375 C-3.10748627 11.56657135 -3.92591003 11.5472052 -4.76913452 11.5272522 C-7.38764976 11.46738918 -10.00620881 11.42104468 -12.625 11.375 C-14.39845686 11.33682636 -16.17189505 11.29777499 -17.9453125 11.2578125 C-22.29672375 11.16168229 -26.64822179 11.07767649 -31 11 C-31.33 10.34 -31.66 9.68 -32 9 C-14.675 8.505 -14.675 8.505 3 8 C-3.40206351 -1.95052661 -3.40206351 -1.95052661 -9.12109375 -3.22705078 C-10.55939029 -3.26662876 -11.99987035 -3.25434087 -13.4375 -3.1953125 C-14.20304199 -3.20335907 -14.96858398 -3.21140564 -15.75732422 -3.21969604 C-18.17422333 -3.23455758 -20.5838125 -3.18102194 -23 -3.125 C-24.64974049 -3.1230557 -26.2994928 -3.12561845 -27.94921875 -3.1328125 C-31.96816234 -3.14059675 -35.98203842 -3.08709822 -40 -3 C-40 -3.33 -40 -3.66 -40 -4 C-35.10806259 -4.26717944 -30.21611717 -4.50013004 -25.32104492 -4.7019043 C-23.65719605 -4.77525939 -21.99372701 -4.85784867 -20.33081055 -4.94995117 C-17.93579285 -5.08097905 -15.54135816 -5.17839303 -13.14453125 -5.26953125 C-12.03486748 -5.34105156 -12.03486748 -5.34105156 -10.90278625 -5.41401672 C-5.43052366 -5.57340225 -3.37622048 -4.19458368 0 0 Z " fill="#848484" transform="translate(451,284)"/>
<path d="M0 0 C1.65 0 3.3 0 5 0 C7.60055502 3.90083252 7.28773985 7.19477685 7.265625 11.71875 C7.26753845 12.57303589 7.2694519 13.42732178 7.27142334 14.30749512 C7.27278387 16.11304011 7.26909664 17.91859492 7.26074219 19.72412109 C7.25004071 22.4894811 7.26064184 25.25419147 7.2734375 28.01953125 C7.27211588 29.77343894 7.26955344 31.52734622 7.265625 33.28125 C7.26967346 34.10943237 7.27372192 34.93761475 7.27789307 35.79089355 C7.24589123 39.7041155 7.2193324 41.67100141 5 45 C3.35 45 1.7 45 0 45 C0 30.15 0 15.3 0 0 Z " fill="#F4F4F4" transform="translate(282,213)"/>
<path d="M0 0 C13.53 0 27.06 0 41 0 C41.495 2.475 41.495 2.475 42 5 C42.66 5 43.32 5 44 5 C44 8.63 44 12.26 44 16 C57.86 16 71.72 16 86 16 C85.01 10.555 85.01 10.555 84 5 C84.33 3.68 84.66 2.36 85 1 C85.34328345 2.35167857 85.67402697 3.70654275 86 5.0625 C86.185625 5.81660156 86.37125 6.57070313 86.5625 7.34765625 C87 10 87 10 87 17 C73.14 17.33 59.28 17.66 45 18 C44.67 24.27 44.34 30.54 44 37 C42.68 37 41.36 37 40 37 C40 25.12 40 13.24 40 1 C27.13 1 14.26 1 1 1 C0.67 1.66 0.34 2.32 0 3 C0 2.01 0 1.02 0 0 Z " fill="#919191" transform="translate(208,310)"/>
<path d="M0 0 C1.67542976 0.28604898 3.34385343 0.61781233 5 1 C5.04936883 5.80548597 5.08570443 10.61082494 5.10986328 15.41650391 C5.11993254 17.05194672 5.13358881 18.68737149 5.15087891 20.32275391 C5.17508705 22.6709437 5.18647357 25.01889588 5.1953125 27.3671875 C5.20563507 28.10057343 5.21595764 28.83395935 5.22659302 29.58956909 C5.22699368 31.39462697 5.12212755 33.1990783 5 35 C4.34 35.66 3.68 36.32 3 37 C0.875 36.625 0.875 36.625 -1 36 C-1.02465098 31.03377651 -1.04283649 26.06758834 -1.05493164 21.10131836 C-1.0599719 19.41055684 -1.06680405 17.71979971 -1.07543945 16.02905273 C-1.08751857 13.60399293 -1.09323123 11.17899056 -1.09765625 8.75390625 C-1.10281754 7.99348526 -1.10797882 7.23306427 -1.11329651 6.44960022 C-1.11349238 4.6326743 -1.06197277 2.81586873 -1 1 C-0.67 0.67 -0.34 0.34 0 0 Z " fill="#F6F6F6" transform="translate(156,223)"/>
<path d="M0 0 C1.67542976 0.28604898 3.34385343 0.61781233 5 1 C5.04936883 5.80548597 5.08570443 10.61082494 5.10986328 15.41650391 C5.11993254 17.05194672 5.13358881 18.68737149 5.15087891 20.32275391 C5.17508705 22.6709437 5.18647357 25.01889588 5.1953125 27.3671875 C5.20563507 28.10057343 5.21595764 28.83395935 5.22659302 29.58956909 C5.22699368 31.39462697 5.12212755 33.1990783 5 35 C4.34 35.66 3.68 36.32 3 37 C2.01 37 1.02 37 0 37 C-1.52781574 33.94436853 -1.14210254 30.75376118 -1.1328125 27.40234375 C-1.13424759 26.27814781 -1.13424759 26.27814781 -1.13571167 25.13124084 C-1.13639241 23.54672156 -1.13454551 21.96219948 -1.13037109 20.37768555 C-1.12501383 17.94378445 -1.13032347 15.51006727 -1.13671875 13.07617188 C-1.1360581 11.53906209 -1.1347772 10.00195242 -1.1328125 8.46484375 C-1.13483673 7.73257065 -1.13686096 7.00029755 -1.13894653 6.24583435 C-1.11495668 1.11495668 -1.11495668 1.11495668 0 0 Z " fill="#FCFCFC" transform="translate(327,223)"/>
<path d="M0 0 C1.32 0 2.64 0 4 0 C4.07329796 4.39787789 4.07396066 7.70415737 3 12 C16.86 12 30.72 12 45 12 C45 12.33 45 12.66 45 13 C31.14 13.33 17.28 13.66 3 14 C2.01 19.94 1.02 25.88 0 32 C-1.32 31.67 -2.64 31.34 -4 31 C-3.34 25.06 -2.68 19.12 -2 13 C-15.86 13 -29.72 13 -44 13 C-44 12.67 -44 12.34 -44 12 C-30.14 11.67 -16.28 11.34 -2 11 C-1.34 7.37 -0.68 3.74 0 0 Z " fill="#717171" transform="translate(203,315)"/>
<path d="M0 0 C1.42044365 0.06377838 1.42044365 0.06377838 2.86958313 0.12884521 C4.32815483 0.17062897 4.32815483 0.17062897 5.81619263 0.21325684 C8.92478174 0.30669661 12.03154199 0.4283654 15.13911438 0.55072021 C17.24517471 0.6189864 19.35129544 0.68541566 21.45747375 0.74993896 C26.62312986 0.91221822 31.78732184 1.09982169 36.95161438 1.30072021 C36.62161438 1.96072021 36.29161438 2.62072021 35.95161438 3.30072021 C34.73691467 3.22740479 33.52221497 3.15408936 32.27070618 3.07855225 C27.71914362 2.82317231 23.16819448 2.66377646 18.61152649 2.53167725 C16.64852638 2.46170254 14.68624488 2.36647031 12.7257843 2.24456787 C1.88031299 1.23895651 1.88031299 1.23895651 -8.04978943 4.68780518 C-12.40325341 8.91316881 -15.34902973 13.90200843 -18.04838562 19.30072021 C-16.14162048 19.29286499 -16.14162048 19.29286499 -14.19633484 19.28485107 C-9.46636157 19.26670916 -4.73639136 19.25525463 -0.00639343 19.24578857 C2.03820819 19.24076936 4.08280624 19.2339526 6.12739563 19.22528076 C9.07141503 19.21310948 12.01538685 19.20746769 14.95942688 19.20306396 C15.86903168 19.19790268 16.77863647 19.19274139 17.71580505 19.18742371 C22.24613147 19.18702603 26.49303305 19.37372021 30.95161438 20.30072021 C30.95161438 20.63072021 30.95161438 20.96072021 30.95161438 21.30072021 C13.46161438 21.30072021 -4.02838562 21.30072021 -22.04838562 21.30072021 C-20.22731573 16.74804549 -18.24840677 13.83754102 -15.11088562 10.23822021 C-11.68916698 6.44378977 -11.68916698 6.44378977 -9.0176239 2.13397217 C-6.15789621 -0.52827619 -3.79853258 -0.0876556 0 0 Z M31.95161438 16.30072021 C32.28161438 16.96072021 32.61161438 17.62072021 32.95161438 18.30072021 C32.29161438 18.96072021 31.63161438 19.62072021 30.95161438 20.30072021 C31.28161438 18.98072021 31.61161438 17.66072021 31.95161438 16.30072021 Z " fill="#C0C0C0" transform="translate(23.048385620117188,326.69927978515625)"/>
<path d="M0 0 C1.96370769 0.12871988 3.9279265 0.24987626 5.89257812 0.36328125 C10.66791282 0.65526601 15.42468081 1.04879561 20.1875 1.5 C19.8575 2.49 19.5275 3.48 19.1875 4.5 C17.40303467 4.39788208 17.40303467 4.39788208 15.58251953 4.29370117 C11.12957076 4.05675992 6.67716378 3.90861547 2.21972656 3.78588867 C0.29852382 3.7208698 -1.62204433 3.63240922 -3.54101562 3.51928711 C-6.31799339 3.35979852 -9.08643694 3.28756293 -11.8671875 3.23046875 C-12.7123996 3.16337204 -13.55761169 3.09627533 -14.42843628 3.02714539 C-17.36972225 2.90367548 -17.36972225 2.90367548 -21.8125 4.5 C-26.7625 10.935 -26.7625 10.935 -31.8125 17.5 C-12.0125 17.995 -12.0125 17.995 8.1875 18.5 C8.1875 18.83 8.1875 19.16 8.1875 19.5 C-5.6725 19.5 -19.5325 19.5 -33.8125 19.5 C-34.8125 16.5 -34.8125 16.5 -34.07881165 14.6986084 C-24.75232547 -0.08227663 -16.76895419 -1.62486019 0 0 Z " fill="#9E9E9E" transform="translate(52.8125,307.5)"/>
<path d="M0 0 C1.45526324 1.81625469 2.90414112 3.63556917 4.33276367 5.47290039 C4.84774414 6.10647461 5.36272461 6.74004883 5.89331055 7.39282227 C7.18904884 9.0424168 8.3648812 10.78463164 9.52026367 12.53540039 C9.02526367 14.02040039 9.02526367 14.02040039 8.52026367 15.53540039 C-5.33973633 15.53540039 -19.19973633 15.53540039 -33.47973633 15.53540039 C-33.47973633 15.20540039 -33.47973633 14.87540039 -33.47973633 14.53540039 C-20.27973633 14.53540039 -7.07973633 14.53540039 6.52026367 14.53540039 C5.20026367 12.55540039 3.88026367 10.57540039 2.52026367 8.53540039 C2.06908173 7.77360474 1.61789978 7.01180908 1.15304565 6.22692871 C-1.45069609 2.1187309 -1.45069609 2.1187309 -5.59197998 -0.15625 C-8.11114669 -0.39012507 -10.50740824 -0.36635584 -13.03442383 -0.24584961 C-13.93597198 -0.23453003 -14.83752014 -0.22321045 -15.76638794 -0.21154785 C-18.63138069 -0.16694492 -21.49127077 -0.06662561 -24.35473633 0.03540039 C-26.30258043 0.07554877 -28.25050342 0.11204718 -30.19848633 0.14477539 C-34.96085352 0.23273645 -39.71943158 0.37066204 -44.47973633 0.53540039 C-44.47973633 -0.45459961 -44.47973633 -1.44459961 -44.47973633 -2.46459961 C-38.99914002 -2.65712819 -33.51833234 -2.83580852 -28.03686523 -3.00170898 C-26.17248453 -3.06008236 -24.30821795 -3.12222831 -22.4440918 -3.18823242 C-19.76347635 -3.28248954 -17.08274238 -3.36314011 -14.40161133 -3.44116211 C-13.56917908 -3.47335846 -12.73674683 -3.50555481 -11.87908936 -3.53872681 C-6.9418834 -3.6663264 -3.66432659 -3.62684297 0 0 Z " fill="#9E9E9E" transform="translate(473.479736328125,311.464599609375)"/>
<path d="M0 0 C0.99 0.33 1.98 0.66 3 1 C5.0220662 28.47843531 5.0220662 28.47843531 3 37 C2.34 37 1.68 37 1 37 C0.67 37.66 0.34 38.32 0 39 C-2.138689 26.16786602 -1.03797741 12.90057638 0 0 Z " fill="#5B5B5B" transform="translate(249,278)"/>
<path d="M0 0 C1.32 0 2.64 0 4 0 C5.93280308 5.50848877 7.63788996 11.05942168 9.1875 16.6875 C9.53167969 17.92886719 9.87585938 19.17023438 10.23046875 20.44921875 C10.94971909 23.76799317 11.15056406 26.62009646 11 30 C7.65569596 27.77046397 7.49281346 27.27413548 6.46484375 23.60546875 C6.21283203 22.73212891 5.96082031 21.85878906 5.70117188 20.95898438 C5.44916016 20.04439453 5.19714844 19.12980469 4.9375 18.1875 C4.42779063 16.38875231 3.91612893 14.59055649 3.40234375 12.79296875 C3.16370605 11.95169434 2.92506836 11.11041992 2.67919922 10.24365234 C1.99205993 7.85566549 1.99205993 7.85566549 0.81640625 5.05078125 C0 3 0 3 0 0 Z " fill="#5F5F5F" transform="translate(327,278)"/>
<path d="M0 0 C5.61 0 11.22 0 17 0 C17 0.99 17 1.98 17 3 C17.55985596 2.98428955 18.11971191 2.9685791 18.6965332 2.95239258 C21.2350859 2.89000152 23.77347729 2.85099782 26.3125 2.8125 C27.19357422 2.78736328 28.07464844 2.76222656 28.98242188 2.73632812 C29.82998047 2.72666016 30.67753906 2.71699219 31.55078125 2.70703125 C32.33106689 2.6913208 33.11135254 2.67561035 33.9152832 2.65942383 C36.57202792 3.0934511 37.43743259 3.83133084 39 6 C39.1875 9.6875 39.1875 9.6875 39 13 C37.34385343 13.38218767 35.67542976 13.71395102 34 14 C33 13 33 13 32.90234375 10.93359375 C32.93489583 8.62239583 32.96744792 6.31119792 33 4 C27.72 4 22.44 4 17 4 C17 5.98 17 7.96 17 10 C16.67 10 16.34 10 16 10 C16 7.03 16 4.06 16 1 C10.72 1 5.44 1 0 1 C0 0.67 0 0.34 0 0 Z " fill="#D7D7D7" transform="translate(375,246)"/>
<path d="M0 0 C0.33 0.66 0.66 1.32 1 2 C12.55 2.33 24.1 2.66 36 3 C37 7 37 7 37 11 C35.33333333 11 33.66666667 11 32 11 C32.66 9.02 33.32 7.04 34 5 C22.12 5 10.24 5 -2 5 C-1.34 3.35 -0.68 1.7 0 0 Z " fill="#888888" transform="translate(88,290)"/>
<path d="M0 0 C1.41270172 0.07152031 1.41270172 0.07152031 2.85394287 0.14448547 C3.82490906 0.17375626 4.79587524 0.20302704 5.79626465 0.23318481 C8.89497292 0.33209004 11.99100057 0.46633923 15.08831787 0.60151672 C17.18980031 0.67481296 19.29136449 0.74580439 21.39300537 0.81440735 C26.54277268 0.98755475 31.69041749 1.19240789 36.83831787 1.41401672 C36.50831787 2.07401672 36.17831787 2.73401672 35.83831787 3.41401672 C34.62885498 3.33546448 33.41939209 3.25691223 32.17327881 3.17597961 C27.63497081 2.90205726 23.09736674 2.73148276 18.55316162 2.59004211 C16.59683001 2.51513317 14.64132354 2.41314463 12.68792725 2.28242493 C1.72420901 1.26753544 1.72420901 1.26753544 -8.26446533 4.90248108 C-12.87522957 9.38655154 -16.29231613 14.67528473 -19.16168213 20.41401672 C-20.15168213 20.08401672 -21.14168213 19.75401672 -22.16168213 19.41401672 C-20.41196101 17.18463068 -18.66191407 14.95550168 -16.91168213 12.72651672 C-16.42054932 12.10067688 -15.9294165 11.47483704 -15.42340088 10.83003235 C-14.69830322 9.90674133 -14.69830322 9.90674133 -13.95855713 8.96479797 C-13.51866455 8.40445862 -13.07877197 7.84411926 -12.62554932 7.26679993 C-11.90093506 6.34967224 -11.90093506 6.34967224 -11.16168213 5.41401672 C-10.65056885 4.52134094 -10.13945557 3.62866516 -9.612854 2.7089386 C-6.35009723 -0.34583368 -4.3403383 -0.10053927 0 0 Z " fill="#A2A2A2" transform="translate(23.16168212890625,326.5859832763672)"/>
<path d="M0 0 C1.32 0 2.64 0 4 0 C4 0.66 4 1.32 4 2 C3.030625 2.268125 2.06125 2.53625 1.0625 2.8125 C0.051875 3.204375 -0.95875 3.59625 -2 4 C-2.33 4.99 -2.66 5.98 -3 7 C-3 6.34 -3 5.68 -3 5 C-14.55 5 -26.1 5 -38 5 C-37.34 4.01 -36.68 3.02 -36 2 C-33.29702652 1.80451881 -30.83984473 1.79265537 -28.1484375 1.92578125 C-27.37440582 1.95222214 -26.60037415 1.97866302 -25.80288696 2.00590515 C-23.32615194 2.09380783 -20.85086085 2.20290407 -18.375 2.3125 C-16.69796872 2.37574452 -15.02088485 2.43761106 -13.34375 2.49804688 C-9.22838572 2.64937033 -5.11419288 2.81970805 -1 3 C-0.67 2.01 -0.34 1.02 0 0 Z " fill="#838383" transform="translate(132,276)"/>
<path d="M0 0 C0.99 0 1.98 0 3 0 C1.8128929 4.42467192 0.07971517 7.4645001 -2.625 11.0546875 C-5.06996117 14.51375188 -7.01036868 18.26626634 -9 22 C-9.99 21.67 -10.98 21.34 -12 21 C-11.44884919 16.42968793 -9.61856432 13.47306361 -7.0625 9.6875 C-6.35222656 8.61886719 -5.64195313 7.55023438 -4.91015625 6.44921875 C-4.27980469 5.64097656 -3.64945313 4.83273437 -3 4 C-2.34 4 -1.68 4 -1 4 C-0.67 2.68 -0.34 1.36 0 0 Z " fill="#666666" transform="translate(92,278)"/>
<path d="M0 0 C1.32 0.33 2.64 0.66 4 1 C3.34 1 2.68 1 2 1 C2 1.99 2 2.98 2 4 C-9.55 4 -21.1 4 -33 4 C-33.33 4.66 -33.66 5.32 -34 6 C-34 4.68 -34 3.36 -34 2 C-22.78 2 -11.56 2 0 2 C0 1.34 0 0.68 0 0 Z " fill="#868686" transform="translate(365,277)"/>
<path d="M0 0 C0.99 0 1.98 0 3 0 C6.99974923 7.99949847 6.28837948 19.25248922 6 28 C5.34 27.67 4.68 27.34 4 27 C1.45508771 18.25186399 0.91609668 9.03427261 0 0 Z " fill="#555555" transform="translate(288,277)"/>
<path d="M0 0 C-1.30710813 3.57402512 -2.88412294 6.50997433 -5.0625 9.625 C-6.83987829 12.17156156 -8.01065939 14.03197816 -9 17 C-10.98 17 -12.96 17 -15 17 C-13.90169995 15.05916841 -12.79613495 13.12244672 -11.6875 11.1875 C-11.07261719 10.10855469 -10.45773438 9.02960938 -9.82421875 7.91796875 C-7.57321584 4.31732813 -4.67998787 0 0 0 Z " fill="#7C7C7C" transform="translate(63,330)"/>
<path d="M0 0 C3.80257473 1.51589128 5.73055864 3.7602045 8.25 6.9375 C8.95640625 7.81277344 9.6628125 8.68804687 10.390625 9.58984375 C12 12 12 12 12 15 C0.45 15 -11.1 15 -23 15 C-23.33 15.66 -23.66 16.32 -24 17 C-24 16.01 -24 15.02 -24 14 C-13.11 13.67 -2.22 13.34 9 13 C3.47087101 4.55566238 3.47087101 4.55566238 0 3 C0 2.01 0 1.02 0 0 Z " fill="#757575" transform="translate(434,265)"/>
<path d="M0 0 C1.67542976 0.28604898 3.34385343 0.61781233 5 1 C5 4.3 5 7.6 5 11 C3.02 11 1.04 11 -1 11 C-1.02688151 9.35425434 -1.04634123 7.70838587 -1.0625 6.0625 C-1.07410156 5.14597656 -1.08570313 4.22945312 -1.09765625 3.28515625 C-1 1 -1 1 0 0 Z " fill="#DEDEDE" transform="translate(241,223)"/>
<path d="M0 0 C0.99 0 1.98 0 3 0 C2.43555175 4.34863652 0.84572036 7.17827655 -1.5625 10.8125 C-2.52349609 12.27623047 -2.52349609 12.27623047 -3.50390625 13.76953125 C-3.99761719 14.50558594 -4.49132812 15.24164063 -5 16 C-6.10546875 14.25 -6.10546875 14.25 -7 12 C-6.42578125 10 -6.42578125 10 -5.3125 8 C-4.92835937 7.3090625 -4.54421875 6.618125 -4.1484375 5.90625 C-1.58925144 1.65834933 -1.58925144 1.65834933 0 0 Z " fill="#686868" transform="translate(79,298)"/>
<path d="M0 0 C1.32 0.33 2.64 0.66 4 1 C4 4.3 4 7.6 4 11 C0 9 0 9 -2 7 C-2.25 4.5 -2.25 4.5 -2 2 C-1.34 1.34 -0.68 0.68 0 0 Z " fill="#DFDFDF" transform="translate(410,223)"/>
<path d="M0 0 C0.99 0 1.98 0 3 0 C2.42365861 4.75481646 0.44931479 7.97048212 -2 12 C-2.99 12 -3.98 12 -5 12 C-5.99 12.66 -6.98 13.32 -8 14 C-6.6825683 10.45112896 -5.12916347 7.35848746 -3.0625 4.1875 C-2.55847656 3.39730469 -2.05445312 2.60710937 -1.53515625 1.79296875 C-1.02855469 1.20128906 -0.52195312 0.60960937 0 0 Z " fill="#737373" transform="translate(70,312)"/>
<path d="M0 0 C3.84725418 3.68088643 7.11385725 7.56185919 10.3125 11.8125 C10.76689453 12.40998047 11.22128906 13.00746094 11.68945312 13.62304688 C12.79633917 15.07947588 13.89865264 16.53937817 15 18 C14.01 18.33 13.02 18.66 12 19 C10.39245904 16.94005539 8.7889195 14.87719524 7.1875 12.8125 C6.73568359 12.23435547 6.28386719 11.65621094 5.81835938 11.06054688 C3.30818834 7.81747919 1.02756611 4.57686912 -1 1 C-0.67 0.67 -0.34 0.34 0 0 Z " fill="#8A8A8A" transform="translate(485,328)"/>
<path d="M0 0 C0.7410498 0.98468262 0.7410498 0.98468262 1.49707031 1.98925781 C0.50707031 1.98925781 -0.48292969 1.98925781 -1.50292969 1.98925781 C-1.99792969 1.49425781 -1.99792969 1.49425781 -2.50292969 0.98925781 C-5.09446076 0.82929615 -7.66244989 0.72987085 -10.25683594 0.67285156 C-11.03228256 0.65207047 -11.80772919 0.63128937 -12.60667419 0.60987854 C-15.09283277 0.54429979 -17.57910014 0.48545982 -20.06542969 0.42675781 C-21.74708173 0.38358048 -23.42872262 0.33996645 -25.11035156 0.29589844 C-29.2410984 0.18861003 -33.37195504 0.08736649 -37.50292969 -0.01074219 C-37.50292969 -0.34074219 -37.50292969 -0.67074219 -37.50292969 -1.01074219 C-32.59245265 -1.25284013 -27.681814 -1.46776079 -22.76904297 -1.65771484 C-21.09847426 -1.72611966 -19.42819067 -1.8019065 -17.75830078 -1.88525391 C-15.35583964 -2.00387632 -12.95359922 -2.09579205 -10.54980469 -2.18261719 C-9.80486755 -2.22513611 -9.05993042 -2.26765503 -8.29241943 -2.3114624 C-4.64372652 -2.41732958 -2.89494765 -2.32567195 0 0 Z " fill="#919191" transform="translate(448.5029296875,281.0107421875)"/>
<path d="M0 0 C0.99 0 1.98 0 3 0 C2.45033703 5.22179824 1.7243411 10.02984035 0 15 C-0.99 15.495 -0.99 15.495 -2 16 C-1.85936865 13.70800823 -1.71234057 11.41640814 -1.5625 9.125 C-1.48128906 7.84882813 -1.40007812 6.57265625 -1.31640625 5.2578125 C-1 2 -1 2 0 0 Z " fill="#555555" transform="translate(210,277)"/>
<path d="M0 0 C1.32 0.33 2.64 0.66 4 1 C4 1.99 4 2.98 4 4 C4.66 4 5.32 4 6 4 C9 10.75 9 10.75 9 13 C5.21429586 11.73809862 4.78168429 10.45144185 2.8125 7.0625 C2.28269531 6.16660156 1.75289063 5.27070313 1.20703125 4.34765625 C0 2 0 2 0 0 Z " fill="#5E5E5E" transform="translate(406,278)"/>
<path d="M0 0 C3.07943151 2.05295434 3.79293121 2.65734795 5 6 C5.125 9.25 5.125 9.25 5 12 C2 11 2 11 0.83203125 8.93359375 C0.49558594 8.10988281 0.15914063 7.28617187 -0.1875 6.4375 C-0.53167969 5.61121094 -0.87585938 4.78492188 -1.23046875 3.93359375 C-1.48441406 3.29550781 -1.73835938 2.65742188 -2 2 C-1.34 1.34 -0.68 0.68 0 0 Z " fill="#686868" transform="translate(382,307)"/>
<path d="M0 0 C1.26403575 3.59566927 0.73990566 6.05299344 -0.25 9.6875 C-0.62898437 11.14736328 -0.62898437 11.14736328 -1.015625 12.63671875 C-1.34046875 13.41660156 -1.6653125 14.19648438 -2 15 C-2.99 15.33 -3.98 15.66 -5 16 C-4.49228528 10.03435204 -2.61407872 5.36190101 0 0 Z " fill="#555555" transform="translate(173,274)"/>
<path d="M0 0 C0.33 0.99 0.66 1.98 1 3 C-0.56847344 5.51835268 -2.15634863 7.82918936 -3.9375 10.1875 C-4.41896484 10.84169922 -4.90042969 11.49589844 -5.39648438 12.16992188 C-6.58846384 13.78676531 -7.79306553 15.39428928 -9 17 C-9.66 16.01 -10.32 15.02 -11 14 C-7.37 9.38 -3.74 4.76 0 0 Z " fill="#8D8D8D" transform="translate(29,310)"/>
<path d="M0 0 C4.54109672 4.26587874 8.24735246 9.03612328 12 14 C11.01 15.485 11.01 15.485 10 17 C8.70759488 15.22970554 7.41610207 13.45874502 6.125 11.6875 C5.40570313 10.70136719 4.68640625 9.71523438 3.9453125 8.69921875 C0 3.2248996 0 3.2248996 0 0 Z " fill="#8A8A8A" transform="translate(471,310)"/>
<path d="M0 0 C2.14336161 3.4766338 2.21277626 6.21229195 2.125 10.25 C2.10695313 11.32765625 2.08890625 12.4053125 2.0703125 13.515625 C2.04710937 14.33546875 2.02390625 15.1553125 2 16 C0 15 0 15 -0.66796875 13.07421875 C-0.83941406 12.28660156 -1.01085937 11.49898438 -1.1875 10.6875 C-1.36667969 9.90761719 -1.54585938 9.12773437 -1.73046875 8.32421875 C-2.10670132 5.07989441 -1.44440661 2.88881323 0 0 Z " fill="#5B5B5B" transform="translate(292,289)"/>
<path d="M0 0 C0.33 0 0.66 0 1 0 C2.33257403 9.41002278 2.33257403 9.41002278 1 14 C0.34 14 -0.32 14 -1 14 C-1.33 14.66 -1.66 15.32 -2 16 C-3.6137931 5.42068966 -3.6137931 5.42068966 0 0 Z " fill="#616161" transform="translate(251,301)"/>
<path d="M0 0 C0.66 0 1.32 0 2 0 C2 0.99 2 1.98 2 3 C0.33333333 4.33333333 -1.33333333 5.66666667 -3 7 C-4.80250086 9.26043351 -6.38326158 11.59798863 -8 14 C-8.99 13.67 -9.98 13.34 -11 13 C-10.54109375 12.48050781 -10.0821875 11.96101563 -9.609375 11.42578125 C-6.88819799 8.33301494 -4.20354452 5.26405775 -1.6875 2 C-1.130625 1.34 -0.57375 0.68 0 0 Z " fill="#848484" transform="translate(65,265)"/>
<path d="M0 0 C0.99 0.33 1.98 0.66 3 1 C2.88658363 3.31309705 2.75896193 5.62550185 2.625 7.9375 C2.52058594 9.86916016 2.52058594 9.86916016 2.4140625 11.83984375 C2.27742187 12.88269531 2.14078125 13.92554688 2 15 C1.01 15.495 1.01 15.495 0 16 C0 10.72 0 5.44 0 0 Z " fill="#535353" transform="translate(249,278)"/>
<path d="M0 0 C3.88014936 1.52059907 5.73906562 3.86078531 8.25 7.125 C8.95640625 8.03507812 9.6628125 8.94515625 10.390625 9.8828125 C11.18726563 10.93082031 11.18726563 10.93082031 12 12 C11.34 12.66 10.68 13.32 10 14 C9.44570313 13.28972656 8.89140625 12.57945312 8.3203125 11.84765625 C7.59585937 10.92855469 6.87140625 10.00945312 6.125 9.0625 C5.40570313 8.14597656 4.68640625 7.22945313 3.9453125 6.28515625 C2.20579164 3.93990515 2.20579164 3.93990515 0 3 C0 2.01 0 1.02 0 0 Z " fill="#818181" transform="translate(434,265)"/>
<path d="M0 0 C0.185625 0.9590625 0.185625 0.9590625 0.375 1.9375 C0.684375 2.9584375 0.684375 2.9584375 1 4 C1.66 4.33 2.32 4.66 3 5 C2.75 7.375 2.75 7.375 2 10 C-0.046875 11.1640625 -0.046875 11.1640625 -2 12 C-1.85831863 10.56208484 -1.71148957 9.1246763 -1.5625 7.6875 C-1.48128906 6.88699219 -1.40007812 6.08648437 -1.31640625 5.26171875 C-1 3 -1 3 0 0 Z " fill="#6D6D6D" transform="translate(162,302)"/>
<path d="M0 0 C1.36523593 3.10280894 0.89965502 4.30631624 -0.1875 7.625 C-1.94781917 10.90283569 -2.5458087 11.9280096 -6 13 C-4.23774765 5.81543274 -4.23774765 5.81543274 -1 3 C-0.67 2.01 -0.34 1.02 0 0 Z " fill="#7D7D7D" transform="translate(168,295)"/>
<path d="M0 0 C0.66 0.66 1.32 1.32 2 2 C0.70984254 3.62619848 -0.58217697 5.25091983 -1.875 6.875 C-2.95394531 8.23238281 -2.95394531 8.23238281 -4.0546875 9.6171875 C-6 12 -6 12 -8 14 C-8 9.2047363 -7.01007087 8.32445916 -4 4.75 C-3.2575 3.85796875 -2.515 2.9659375 -1.75 2.046875 C-1.1725 1.37140625 -0.595 0.6959375 0 0 Z " fill="#888888" transform="translate(41,295)"/>
<path d="M0 0 C1.39195915 4.17587745 -0.17676781 6.13474776 -2 10 C-2.99 10 -3.98 10 -5 10 C-4.67 8.02 -4.34 6.04 -4 4 C-3.01 3.67 -2.02 3.34 -1 3 C-0.67 2.01 -0.34 1.02 0 0 Z " fill="#5D5D5D" transform="translate(128,288)"/>
<path d="M0 0 C0.99 0 1.98 0 3 0 C4.83691257 3.78187881 5.15837626 5.94568308 4 10 C1.7448078 7.7448078 1.02276532 5.9952413 0 3 C0 2.01 0 1.02 0 0 Z " fill="#595959" transform="translate(367,278)"/>
<path d="M0 0 C1.46726798 3.81489674 0.43336419 6.29011622 -1 10 C-1.99 10 -2.98 10 -4 10 C-3.51171875 3.9453125 -3.51171875 3.9453125 -3 2 C-2.01 1.34 -1.02 0.68 0 0 Z " fill="#5A5A5A" transform="translate(168,291)"/>
<path d="M0 0 C0.99 0.33 1.98 0.66 3 1 C1.89718873 2.27200971 0.79269231 3.54255853 -0.3125 4.8125 C-1.23482422 5.87404297 -1.23482422 5.87404297 -2.17578125 6.95703125 C-3.73334335 8.70136739 -5.32658875 10.36778041 -7 12 C-7 8.19654123 -5.86213669 7.22298985 -3.5 4.3125 C-2.8503125 3.50425781 -2.200625 2.69601562 -1.53125 1.86328125 C-1.0259375 1.24839844 -0.520625 0.63351562 0 0 Z " fill="#888888" transform="translate(52,281)"/>
<path d="M0 0 C2 3 2 3 2 7 C1.34 7 0.68 7 0 7 C-0.33 7.99 -0.66 8.98 -1 10 C-1.33 7.36 -1.66 4.72 -2 2 C-1.34 2 -0.68 2 0 2 C0 1.34 0 0.68 0 0 Z " fill="#696969" transform="translate(334,290)"/>
<path d="M0 0 C2.50298434 2.93828597 3.46930939 5.17902761 4 9 C2.68 9 1.36 9 0 9 C-0.84454356 5.62182575 -1.10844919 3.32534757 0 0 Z " fill="#767676" transform="translate(372,283)"/>
<path d="M0 0 C1.2077558 3.62326739 0.54311128 4.64146369 -1 8 C-1.99 8 -2.98 8 -4 8 C-3.6875 5.125 -3.6875 5.125 -3 2 C-2.01 1.34 -1.02 0.68 0 0 Z " fill="#5F5F5F" transform="translate(133,278)"/>
<path d="M0 0 C1.66666667 1.66666667 3.33333333 3.33333333 5 5 C5.8971875 5.804375 5.8971875 5.804375 6.8125 6.625 C8 8 8 8 8 11 C7.34 11 6.68 11 6 11 C3.3979134 7.50344613 1.45002023 4.10839064 0 0 Z " fill="#7B7B7B" transform="translate(449,283)"/>
<path d="M0 0 C0.33 0.99 0.66 1.98 1 3 C1.66 3 2.32 3 3 3 C2.34 4.32 1.68 5.64 1 7 C0.67 6.67 0.34 6.34 0 6 C-0.33 6.66 -0.66 7.32 -1 8 C-1.66 8 -2.32 8 -3 8 C-1.125 2.25 -1.125 2.25 0 0 Z " fill="#7C7C7C" transform="translate(128,283)"/>
<path d="M0 0 C0.99 0.33 1.98 0.66 3 1 C3 1.66 3 2.32 3 3 C3.66 3.33 4.32 3.66 5 4 C4.01 5.32 3.02 6.64 2 8 C0.74335022 5.09399739 0 3.20395416 0 0 Z " fill="#5C5C5C" transform="translate(373,291)"/>
<path d="M0 0 C0.66 0 1.32 0 2 0 C0.62845496 2.95409701 -0.98863724 5.44008376 -3 8 C-3.33 7.01 -3.66 6.02 -4 5 C-2.1875 2.3125 -2.1875 2.3125 0 0 Z " fill="#5F5F5F" transform="translate(85,292)"/>
<path d="M0 0 C0.33 0.99 0.66 1.98 1 3 C0.34 3.66 -0.32 4.32 -1 5 C-1.66 5 -2.32 5 -3 5 C-3.99 5.66 -4.98 6.32 -6 7 C-4.52307692 2.32307692 -4.52307692 2.32307692 -1.875 0.6875 C-1.25625 0.460625 -0.6375 0.23375 0 0 Z " fill="#7A7A7A" transform="translate(68,319)"/>
<path d="M0 0 C0.99 0 1.98 0 3 0 C2.67 1.65 2.34 3.3 2 5 C1.01 5 0.02 5 -1 5 C-1.99 5.495 -1.99 5.495 -3 6 C-1.125 1.125 -1.125 1.125 0 0 Z " fill="#727272" transform="translate(79,298)"/>
</svg>
